<?xml version="1.0" encoding="UTF-8"?>
<svg width="178px" height="189px" viewBox="0 0 178 189" version="1.1" xmlns="http://www.w3.org/2000/svg" xmlns:xlink="http://www.w3.org/1999/xlink">
    <title>Untitled</title>
    <g id="Page-1" stroke="none" stroke-width="1" fill="none" fill-rule="evenodd">
        <g id="bulb_on" transform="translate(0.000747, 0.999438)">
            <path d="M75.8442832,172.090562 C75.5980932,172.023062 75.5193832,171.401422 75.5271032,170.278162 C75.5348172,169.154962 75.6262632,167.526662 75.6235232,165.437062 C75.6207832,163.347362 75.5216232,160.791562 75.0881932,157.866662 C74.6547632,154.941762 73.8852932,151.642862 72.5120932,148.194262 C71.2814932,145.042362 69.5196932,141.772962 67.2660932,138.354862 C65.0124932,134.936762 62.2629932,131.370762 59.3120932,127.514862 C56.8994932,124.428462 54.3246932,121.098462 51.8736932,117.373862 C49.4226932,113.649662 47.0953932,109.530962 45.3139932,104.816862 C45.3139922,104.816858 45.3139902,104.816855 45.3139892,104.816852 C43.0781892,98.7294523 42.0803892,91.9188523 42.6299892,84.9558523 C43.1796192,77.9933523 45.2778892,70.8808523 49.1609892,64.4378523 C52.6123892,58.7595523 57.3911892,53.7698523 63.1279892,49.9578523 C68.8644892,46.1456523 75.5569892,43.5128523 82.6919892,42.5826523 C83.0069292,42.5415923 83.3223092,42.5039023 83.6380692,42.4696123 C90.9840692,41.7036423 98.2980692,42.8201123 104.874069,45.3955123 C111.450769,47.9709123 117.288069,52.0037123 121.857069,57.0685123 C126.913269,62.7266123 130.215069,69.4645123 131.831069,76.3095123 C133.447069,83.1538123 133.378269,90.1015123 131.835269,96.4565123 C130.899789,100.137712 129.595069,103.464712 128.205669,106.546512 C126.816269,109.628812 125.341969,112.466412 123.990869,115.147712 C123.990868,115.147714 123.990866,115.147717 123.990865,115.14772 C116.596165,129.98672 111.859865,142.81372 108.668865,151.78172 C107.073565,156.26582 105.862665,159.79342 104.936765,162.17472 C104.010895,164.55562 103.366965,165.79002 102.986865,165.70802 C102.606795,165.62603 102.510805,164.23112 102.734025,161.66322 C102.957245,159.09532 103.502635,155.35422 104.488125,150.61222 C105.473645,145.87062 106.902125,140.12822 108.930925,133.59722 C110.959725,127.06612 113.591325,119.74622 116.983325,111.89522 C116.983327,111.895217 116.983328,111.895214 116.983329,111.895211 C118.198529,109.048911 119.499529,106.198711 120.660929,103.319111 C121.822329,100.439511 122.844129,97.5307113 123.424629,94.5444113 C124.472629,89.5034113 124.311629,83.9624113 122.866629,78.5474113 C121.420629,73.1316113 118.690629,67.8424113 114.709629,63.5794113 C111.145929,59.7172113 106.500929,56.6287113 101.296629,54.6495113 C96.0926292,52.6703113 90.3316292,51.8013113 84.6936292,52.4127113 C84.4504692,52.4377113 84.2073492,52.4654713 83.9643292,52.4959713 C78.4587292,53.1870513 73.1693292,55.2625713 68.5973292,58.2490713 C64.0252292,61.2355713 60.1720292,65.1316713 57.4183292,69.5240713 C54.2707292,74.4920713 52.4717292,80.1730713 51.8770292,85.7960713 C51.2823392,91.4186713 51.8921292,96.9810713 53.5179292,101.951071 L53.5179322,101.95108 C54.7566322,105.88448 56.6525322,109.53958 58.7536322,113.03608 C60.8547322,116.53278 63.1610322,119.87088 65.3556322,123.11708 C68.1253322,127.12368 70.7517322,131.08208 72.8869322,134.98408 C75.0220322,138.88638 76.6696322,142.73038 77.7485322,146.42708 C78.9141322,150.50738 79.3341322,154.28388 79.3591322,157.54908 C79.3841642,160.81398 79.0162822,163.57228 78.5411522,165.75808 C78.0660222,167.94388 77.4854522,169.56218 76.9913522,170.61458 C76.4972122,171.66688 76.0911022,172.15688 75.8449522,172.08938 L75.8442832,172.090562 Z" id="path3237" fill="#000000"></path>
            <path d="M78.8316532,152.310562 C79.1564232,149.569762 84.8210532,147.985262 91.4756532,148.773862 C98.1305532,149.562432 103.267653,152.426862 102.943653,155.167662 C102.618873,157.908462 96.9542532,159.492962 90.2996532,158.704362 C83.6447532,157.915362 78.5076532,155.051362 78.8316532,152.310362 L78.8316532,152.310562 Z" id="path3261" fill="#000000"></path>
            <path d="M75.4871332,166.739562 C75.7136532,163.988562 82.6975332,162.316562 91.0761332,163.006562 C99.4547332,163.696562 106.071133,166.488962 105.844133,169.239662 C105.617603,171.990362 98.6337332,173.662762 90.2551332,172.972762 C81.8765332,172.282762 75.2601332,169.490362 75.4871332,166.739662 L75.4871332,166.739562 Z" id="path3267" fill="#000000"></path>
            <path d="M75.9871332,180.306562 C76.3916032,177.580562 83.1998332,176.324562 91.1841332,177.507562 C99.1684332,178.690462 105.320133,181.866262 104.916133,184.596462 C104.511663,187.326662 97.7034332,188.582462 89.7191332,187.399662 C81.7348332,186.216862 75.5831332,183.040962 75.9871332,180.310762 L75.9871332,180.306562 Z" id="path3273" fill="#000000"></path>
            <path d="M21.8922532,26.7105623 C23.6298532,24.5662623 31.6021532,28.1433623 39.6872532,34.6951623 C47.7725532,41.2469623 52.9242532,48.3051623 51.1862532,50.4491623 C49.4486532,52.5934623 41.4763532,49.0163623 33.3912532,42.4645623 C25.3059532,35.9127623 20.1542532,28.8545623 21.8922532,26.7105623 Z" id="path3303" fill="#000000"></path>
            <path d="M80.9857532,0.00556231945 C83.7364532,-0.220437681 86.5342532,6.46856232 87.2312532,14.9355623 C87.9282532,23.4035623 86.2618532,30.4605623 83.5111532,30.6865623 C80.7604532,30.9125623 77.9622532,24.2245623 77.2652532,15.7565623 C76.5682832,7.28856232 78.2350532,0.232562319 80.9857532,0.00556231945 L80.9857532,0.00556231945 Z" id="path3309" fill="#000000"></path>
            <path d="M152.084253,16.5205623 C154.296353,18.1711623 151.165983,26.1120623 145.096853,34.2455623 C139.027753,42.3793623 132.306853,47.6415623 130.094853,45.9905623 C127.882753,44.3399623 131.013123,36.3990623 137.082253,28.2655623 C143.151353,20.1317623 149.872253,14.8695623 152.084253,16.5205623 Z" id="path3315" fill="#000000"></path>
            <path d="M142.283253,78.4378923 C141.086253,75.9510923 148.065253,70.1052923 157.861253,65.3898923 C167.657453,60.6738923 176.579253,58.8646923 177.777253,61.3514923 C178.974453,63.8382923 171.995553,69.6840923 162.199253,74.4004923 C152.403053,79.1164923 143.481253,80.9256923 142.283253,78.4388923 L142.283253,78.4378923 Z" id="path3321" fill="#000000"></path>
            <path d="M0.161253225,69.0895623 C1.45705323,66.6526623 10.2082532,68.7689723 19.6942532,73.8134623 C29.1804532,78.8578623 35.8272532,84.9294623 34.5322532,87.3664623 C33.2364532,89.8033623 24.4852532,87.6870523 14.9992532,82.6425623 C5.51305323,77.5981623 -1.13374677,71.5265623 0.161253225,69.0895623 Z" id="path3333" fill="#000000"></path>
            <path d="M101.924253,152.494562 C98.8585532,148.780162 84.7362532,147.122762 80.3942532,149.967762 C79.1960532,150.752822 79.1957532,150.752402 79.1957532,148.549362 C79.1957532,141.650362 74.6266532,131.474362 65.7737532,118.657362 C56.1209532,104.682362 54.2777532,101.271362 52.4277532,93.9543623 C50.0155532,84.4178623 52.2632732,71.7833623 57.7498532,64.0373623 C71.3908532,44.7793623 97.5108532,42.2813623 113.879853,58.6679623 C121.766953,66.5632623 125.630853,79.2099623 123.448453,89.9829623 C122.505303,94.6375623 121.449553,97.5484623 117.078653,107.545962 C110.242353,123.181962 105.029653,139.629962 102.845653,152.449962 C102.687713,153.377392 102.654103,153.379012 101.924113,152.494562 L101.924253,152.494562 Z" id="path3339" fill-rule="nonzero"></path>
        </g>
    </g>
</svg>