<?xml version="1.0" encoding="UTF-8"?>
<svg width="513px" height="386px" viewBox="0 0 513 386" version="1.1" xmlns="http://www.w3.org/2000/svg" xmlns:xlink="http://www.w3.org/1999/xlink">
    <title>CurtainClosed</title>
    <g id="Page-1" stroke="none" stroke-width="1" fill="none" fill-rule="evenodd">
        <g id="CurtainOpen" transform="translate(0.000000, 0.007000)" fill="#000000" fill-rule="nonzero">
            <path d="M503.361,0 L431.797,0 C427.096,0 423.282,3.755 423.169,8.427 L88.831,8.427 C88.717,3.754 84.902,0 80.203,0 L8.639,0 C3.868,0 0,3.868 0,8.639 L0,377.347 C0,382.118 3.868,385.986 8.639,385.986 L67.78,385.986 C72.551,385.986 76.419,382.118 76.419,377.347 C76.419,377.132 76.411,376.92 76.396,376.709 C76.393,369.872 76.322,363.19 76.2,356.642 L435.802,356.642 C435.676,363.393 435.606,370.289 435.606,377.347 C435.606,382.118 439.473,385.986 444.245,385.986 L503.362,385.986 C508.134,385.986 512.001,382.118 512.001,377.347 L512.001,8.639 C512.001,3.868 508.133,0 503.361,0 Z M258,6 L259,6 L259,356 L258,356 L258,6 Z" id="Shape"></path>
        </g>
    </g>
</svg>