<?xml version="1.0" encoding="UTF-8"?>
<svg width="513px" height="386px" viewBox="0 0 513 386" version="1.1" xmlns="http://www.w3.org/2000/svg" xmlns:xlink="http://www.w3.org/1999/xlink">
    <title>CurtainClosed</title>
    <g id="Page-1" stroke="none" stroke-width="1" fill="none" fill-rule="evenodd">
        <path d="M17,0.007 L503,0.007 C507.418278,0.007 511,3.588722 511,8.007 L511,377.007 C511,381.425278 507.418278,385.007 503,385.007 L17,385.007 C12.581722,385.007 9,381.425278 9,377.007 L9,8.007 C9,3.588722 12.581722,0.007 17,0.007 Z" id="Shape" stroke="#070000" stroke-width="16" fill-rule="nonzero"></path>
        <g id="CurtainClosed" transform="translate(22.000000, -12.000000)" stroke="#090000" stroke-width="16">
            <g id="Pleats">
                <rect id="Pleat-1" x="24" y="10" width="24" height="390" rx="8"></rect>
                <rect id="Pleat-2" x="90" y="10" width="24" height="390" rx="8"></rect>
                <rect id="Pleat-5" x="156" y="10" width="26" height="390" rx="8"></rect>
                <rect id="Pleat-1-Copy" x="246" y="8" width="30" height="392" rx="8"></rect>
                <rect id="Pleat-5-Copy" x="340" y="10" width="40" height="390" rx="8"></rect>
                <rect id="Pleat-8-Copy" x="431" y="8" width="19" height="392" rx="8"></rect>
            </g>
        </g>
    </g>
</svg>