<?xml version="1.0" encoding="UTF-8"?>
<svg width="1608px" height="1216px" viewBox="0 0 1608 1216" version="1.1" xmlns="http://www.w3.org/2000/svg" xmlns:xlink="http://www.w3.org/1999/xlink">
    <title>Untitled</title>
    <defs>
        <linearGradient x1="-1.64289583%" y1="-11117.9949%" x2="101.685021%" y2="-11117.9949%" id="linearGradient-1">
            <stop stop-color="#6B6B6B" offset="0%"></stop>
            <stop stop-color="#FFFFFF" offset="79.1%"></stop>
            <stop stop-color="#A4A4A2" offset="87.5%"></stop>
            <stop stop-color="#525453" offset="95.3%"></stop>
            <stop stop-color="#363837" offset="100%"></stop>
        </linearGradient>
        <linearGradient x1="3.23613988%" y1="-734.156921%" x2="97.0750857%" y2="-734.156921%" id="linearGradient-2">
            <stop stop-color="#92A8B6" offset="0%"></stop>
            <stop stop-color="#718A9E" offset="13.7%"></stop>
            <stop stop-color="#7D96AA" offset="25%"></stop>
            <stop stop-color="#C3D0D6" offset="44.7%"></stop>
            <stop stop-color="#C1D5DC" offset="61.5%"></stop>
            <stop stop-color="#557284" offset="87%"></stop>
            <stop stop-color="#91AABE" offset="100%"></stop>
        </linearGradient>
        <linearGradient x1="-1399.24128%" y1="-5.9891148%" x2="-1399.24128%" y2="86.3320707%" id="linearGradient-3">
            <stop stop-color="#92A8B6" offset="0%"></stop>
            <stop stop-color="#718A9E" offset="22.6%"></stop>
            <stop stop-color="#7D96AA" offset="35.7%"></stop>
            <stop stop-color="#C3D0D6" offset="53%"></stop>
            <stop stop-color="#C1D5DC" offset="67.1%"></stop>
            <stop stop-color="#557284" offset="91.7%"></stop>
            <stop stop-color="#617D90" offset="100%"></stop>
        </linearGradient>
        <linearGradient x1="0.00736865375%" y1="-1251.51054%" x2="100.007369%" y2="-1251.51054%" id="linearGradient-4">
            <stop stop-color="#92A8B6" offset="0%"></stop>
            <stop stop-color="#718A9E" offset="13.7%"></stop>
            <stop stop-color="#7D96AA" offset="25%"></stop>
            <stop stop-color="#C3D0D6" offset="44.7%"></stop>
            <stop stop-color="#C1D5DC" offset="61.5%"></stop>
            <stop stop-color="#557284" offset="87%"></stop>
            <stop stop-color="#91AABE" offset="100%"></stop>
        </linearGradient>
        <radialGradient cx="49.9915999%" cy="49.9987272%" fx="49.9915999%" fy="49.9987272%" r="96.3363678%" gradientTransform="translate(0.499916,0.499987),scale(0.519044,1.000000),translate(-0.499916,-0.499987)" id="radialGradient-5">
            <stop stop-color="#92A8B6" offset="0%"></stop>
            <stop stop-color="#718A9E" offset="22.6%"></stop>
            <stop stop-color="#7D96AA" offset="35.7%"></stop>
            <stop stop-color="#C3D0D6" offset="53%"></stop>
            <stop stop-color="#C1D5DC" offset="67.1%"></stop>
            <stop stop-color="#557284" offset="91.7%"></stop>
            <stop stop-color="#617D90" offset="100%"></stop>
        </radialGradient>
        <radialGradient cx="49.9915999%" cy="49.9987272%" fx="49.9915999%" fy="49.9987272%" r="143.243047%" gradientTransform="translate(0.499916,0.499987),scale(0.349077,1.000000),translate(-0.499916,-0.499987)" id="radialGradient-6">
            <stop stop-color="#92A8B6" offset="0%"></stop>
            <stop stop-color="#718A9E" offset="22.6%"></stop>
            <stop stop-color="#7D96AA" offset="35.7%"></stop>
            <stop stop-color="#C3D0D6" offset="53%"></stop>
            <stop stop-color="#C1D5DC" offset="67.1%"></stop>
            <stop stop-color="#557284" offset="91.7%"></stop>
            <stop stop-color="#617D90" offset="100%"></stop>
        </radialGradient>
        <linearGradient x1="0.00736865375%" y1="-989.100982%" x2="100.007369%" y2="-989.100982%" id="linearGradient-7">
            <stop stop-color="#92A8B6" offset="0%"></stop>
            <stop stop-color="#718A9E" offset="13.7%"></stop>
            <stop stop-color="#7D96AA" offset="25%"></stop>
            <stop stop-color="#C3D0D6" offset="44.7%"></stop>
            <stop stop-color="#C1D5DC" offset="61.5%"></stop>
            <stop stop-color="#557284" offset="87%"></stop>
            <stop stop-color="#91AABE" offset="100%"></stop>
        </linearGradient>
        <radialGradient cx="49.9915999%" cy="49.9987272%" fx="49.9915999%" fy="49.9987272%" r="143.238382%" gradientTransform="translate(0.499916,0.499987),scale(0.349088,1.000000),translate(-0.499916,-0.499987)" id="radialGradient-8">
            <stop stop-color="#92A8B6" offset="0%"></stop>
            <stop stop-color="#718A9E" offset="22.6%"></stop>
            <stop stop-color="#7D96AA" offset="35.7%"></stop>
            <stop stop-color="#C3D0D6" offset="53%"></stop>
            <stop stop-color="#C1D5DC" offset="67.1%"></stop>
            <stop stop-color="#557284" offset="91.7%"></stop>
            <stop stop-color="#617D90" offset="100%"></stop>
        </radialGradient>
        <path d="M65.71633,305.634657 C59.79133,300.515657 56.69433,292.836657 54.97533,285.197657 C52.21333,272.924657 52.46633,260.104657 49.43933,247.894657 C46.67133,236.732657 41.25033,226.429657 35.62533,216.399657 C23.66933,195.084657 10.40533,174.059657 4.08133,150.452657 C-1.49867,129.622657 -1.36067,107.285657 4.51833,86.5386574 C9.04833,70.5476574 16.96033,55.5106574 27.66433,42.7966574 C39.11733,29.1936574 53.71433,18.3106574 69.85433,10.8446574 C85.72233,3.50465744 103.22133,-0.570342561 120.69333,0.0646574389 C142.25233,0.847657439 163.23333,8.80465744 181.01933,21.0146574 C202.32533,35.6416574 219.45833,56.6906574 227.92533,81.1076574 C234.12233,98.9786574 235.62133,118.409657 232.60933,137.083657 C229.84133,154.246657 223.35733,170.649657 215.13333,185.967657 C206.24433,202.524657 195.24733,218.059657 188.58533,235.631657 C184.44333,246.557657 182.05733,258.080657 180.47733,269.658657 C179.37633,277.728657 178.63233,285.956657 175.71833,293.561657 C174.02233,297.988657 171.52533,302.231657 167.81033,305.177657 C164.97833,307.423657 161.55033,308.824657 158.04033,309.682657 C154.53033,310.540657 150.91533,310.879657 147.31333,311.184657 C140.08533,311.795657 132.84733,312.280657 125.60833,312.739657 C114.63333,313.434657 103.63433,314.070657 92.64533,313.657657 C87.87233,313.477657 83.07833,313.096657 78.44733,311.924657 C73.81633,310.752657 69.32933,308.757657 65.71533,305.634657" id="path-9"></path>
        <linearGradient x1="0.00697533094%" y1="-309.657087%" x2="100.002371%" y2="-309.657087%" id="linearGradient-11">
            <stop stop-color="#B0C9E0" offset="0%"></stop>
            <stop stop-color="#B0C9E0" stop-opacity="0" offset="100%"></stop>
        </linearGradient>
        <linearGradient x1="44.5204407%" y1="22.4498464%" x2="65.9194109%" y2="38.6170724%" id="linearGradient-12">
            <stop stop-color="#FFFFFF" offset="0%"></stop>
            <stop stop-color="#FFFFFF" stop-opacity="0.498" offset="30.5%"></stop>
            <stop stop-color="#FFFFFF" stop-opacity="0" offset="100%"></stop>
        </linearGradient>
        <linearGradient x1="-0.00942818083%" y1="-8172.71215%" x2="100%" y2="-8172.71215%" id="linearGradient-13">
            <stop stop-color="#6B6B6B" offset="0%"></stop>
            <stop stop-color="#6E6E6E" offset="5.4%"></stop>
            <stop stop-color="#F3F3F1" offset="14%"></stop>
            <stop stop-color="#F1F1EF" offset="23.3%"></stop>
            <stop stop-color="#DEDEDC" offset="35.8%"></stop>
            <stop stop-color="#A9ABAA" offset="47.6%"></stop>
            <stop stop-color="#B8B8B6" offset="63.6%"></stop>
            <stop stop-color="#B8B8B6" offset="72.4%"></stop>
            <stop stop-color="#A4A4A2" offset="83.2%"></stop>
            <stop stop-color="#525453" offset="92.8%"></stop>
            <stop stop-color="#363837" offset="100%"></stop>
        </linearGradient>
        <linearGradient x1="-38.8287602%" y1="53.1530396%" x2="76.2049847%" y2="34.9453811%" id="linearGradient-14">
            <stop stop-color="#000000" offset="0%"></stop>
            <stop stop-color="#222423" offset="13.5%"></stop>
            <stop stop-color="#4C4E4D" offset="23%"></stop>
            <stop stop-color="#333534" offset="33.9%"></stop>
            <stop stop-color="#181A19" offset="43%"></stop>
            <stop stop-color="#6E6E6E" stop-opacity="0.478" offset="51.6%"></stop>
            <stop stop-color="#6E6E6E" stop-opacity="0.412" offset="58.3%"></stop>
            <stop stop-color="#6E6E6E" stop-opacity="0.325" offset="66.7%"></stop>
            <stop stop-color="#6E6E6E" stop-opacity="0.243" offset="74.8%"></stop>
            <stop stop-color="#6E6E6E" stop-opacity="0.145" offset="84.9%"></stop>
            <stop stop-color="#6E6E6E" stop-opacity="0.078" offset="91.7%"></stop>
            <stop stop-color="#6E6E6E" stop-opacity="0" offset="100%"></stop>
        </linearGradient>
        <linearGradient x1="0.00448429303%" y1="-1063.28534%" x2="100.002831%" y2="-1063.28534%" id="linearGradient-15">
            <stop stop-color="#6B6B6B" offset="0%"></stop>
            <stop stop-color="#6E6E6E" offset="5.4%"></stop>
            <stop stop-color="#F3F3F1" offset="14%"></stop>
            <stop stop-color="#F1F1EF" offset="23.3%"></stop>
            <stop stop-color="#DEDEDC" offset="35.8%"></stop>
            <stop stop-color="#A9ABAA" offset="47.6%"></stop>
            <stop stop-color="#B8B8B6" offset="63.6%"></stop>
            <stop stop-color="#B8B8B6" offset="72.4%"></stop>
            <stop stop-color="#A4A4A2" offset="83.2%"></stop>
            <stop stop-color="#525453" offset="92.8%"></stop>
            <stop stop-color="#363837" offset="100%"></stop>
        </linearGradient>
        <linearGradient x1="10.2289477%" y1="42.491582%" x2="67.8973958%" y2="63.8912321%" id="linearGradient-16">
            <stop stop-color="#6B6B6B" stop-opacity="0" offset="0%"></stop>
            <stop stop-color="#B8B8B6" stop-opacity="0" offset="72.4%"></stop>
            <stop stop-color="#A4A4A2" offset="83.2%"></stop>
            <stop stop-color="#525453" offset="92.8%"></stop>
            <stop stop-color="#363837" offset="100%"></stop>
        </linearGradient>
        <linearGradient x1="75.8036484%" y1="33.8345253%" x2="0.428800026%" y2="51.0657353%" id="linearGradient-17">
            <stop stop-color="#6B6B6B" stop-opacity="0" offset="0%"></stop>
            <stop stop-color="#B8B8B6" stop-opacity="0" offset="72.4%"></stop>
            <stop stop-color="#A4A4A2" offset="83.2%"></stop>
            <stop stop-color="#525453" offset="92.8%"></stop>
            <stop stop-color="#363837" offset="100%"></stop>
        </linearGradient>
        <path d="M79.0490324,92.196 C87.2350324,85.696 95.4220324,79.198 101.775032,71.082 C102.882032,69.381 101.599032,67.852 101.545032,67.836 C100.059032,67.147 99.3520324,66.343 100.104032,65.204 C100.377032,64.79 100.819032,64.44 101.358032,64.209 C101.415102,64.1740451 101.467807,64.1324187 101.515032,64.085 L103.115032,62.873 C103.172032,62.847 103.215032,62.808 103.271032,62.78 C104.298032,62.267 105.061032,61.471 105.406032,60.508 C105.778378,59.4418786 105.633493,58.263206 105.014032,57.319 C104.587032,56.66 103.949032,56.17 103.208032,55.811 L103.239032,55.781 L103.083032,55.685 L101.495032,54.522 C101.44519,54.4960096 101.392946,54.474911 101.339032,54.459 C99.8530324,53.77 99.4130324,52.437 100.165032,51.297 C100.438032,50.884 100.880032,50.534 101.420032,50.303 C101.477065,50.267991 101.529763,50.2263695 101.577032,50.179 L103.176032,48.936 C103.234032,48.91 103.276032,48.87 103.332032,48.843 C104.359032,48.33 105.122032,47.533 105.468032,46.571 C105.840259,45.5044123 105.695002,44.3253516 105.075032,43.381 C104.649032,42.723 104.010032,42.233 103.270032,41.874 L103.300032,41.843 L103.145032,41.748 L101.556032,40.584 C101.506385,40.5575888 101.454097,40.5364726 101.400032,40.521 C99.9150324,39.833 99.4750324,38.499 100.227032,37.36 C100.500032,36.946 100.942032,36.596 101.481032,36.365 C101.538306,36.3303387 101.591045,36.2886854 101.638032,36.241 L103.238032,35.029 C103.295032,35.003 103.338032,34.964 103.394032,34.936 C104.421032,34.424 105.184032,33.627 105.529032,32.665 C105.901553,31.5985655 105.756667,30.4195146 105.137032,29.475 C104.710032,28.816 104.072032,28.327 103.331032,27.967 L103.362032,27.937 L103.207032,27.841 L101.618032,26.678 C101.56819,26.6520096 101.515946,26.630911 101.462032,26.615 C99.9760324,25.927 99.5360324,24.593 100.289032,23.453 C100.537032,23.076 100.859032,22.738 101.136032,22.613 C101.299032,22.541 101.272032,22.536 101.293032,22.521 L101.355032,22.49 C101.389032,22.464 101.405032,22.432 101.449032,22.396 C101.538032,22.325 101.682032,22.235 101.826032,22.116 C102.113032,21.879 102.478032,21.556 102.923032,21.183 C103.815032,20.438 104.527032,20.021 105.441032,19.256 C105.505576,13.4238347 105.681608,7.5934361 105.969032,1.768 C60.5000324,13.402 19.0590324,6.338 0.872032435,2.27373675e-13 C-0.894967565,2.51 0.610032435,6.23 0.374032435,9.122 C1.01803244,9.985 1.68603244,10.827 2.21403244,11.737 C3.12103244,12.511 4.22503244,13.466 5.11003244,14.219 L6.20003244,15.161 C6.34203244,15.281 6.48503244,15.372 6.57303244,15.444 C6.61703244,15.48 6.63303244,15.512 6.66603244,15.538 L6.72903244,15.569 C6.74903244,15.584 6.72303244,15.589 6.88503244,15.664 C7.16103244,15.791 7.47903244,16.132 7.72503244,16.511 C8.46703244,17.658 8.01503244,18.987 6.52303244,19.662 C6.46919151,19.6772685 6.41694944,19.6976965 6.36703244,19.723 L4.76703244,20.873 L4.61103244,20.966 L4.64203244,20.996 C3.89803244,21.35 3.25503244,21.834 2.82303244,22.489 C2.19558724,23.4276735 2.04036672,24.6047624 2.40303244,25.674 C2.73903244,26.64 3.49503244,27.444 4.51803244,27.965 C4.57403244,27.993 4.61603244,28.033 4.67303244,28.06 L6.26203244,29.286 C6.30803244,29.334 6.36103244,29.376 6.41703244,29.411 C6.95503244,29.647 7.39403244,30.001 7.66303244,30.417 C8.40503244,31.563 7.95303244,32.893 6.46203244,33.568 C6.40784935,33.5832076 6.35526967,33.6036367 6.30503244,33.629 L4.70603244,34.779 L4.55003244,34.871 L4.58003244,34.902 C3.83703244,35.255 3.19403244,35.739 2.76103244,36.394 C2.13326664,37.3329265 1.97803565,38.5104645 2.34103244,39.58 C2.67803244,40.546 3.43403244,41.349 4.45603244,41.87 C4.51203244,41.898 4.55403244,41.937 4.61203244,41.965 L6.20003244,43.222 C6.24656333,43.2703534 6.29897188,43.3126834 6.35603244,43.348 C6.89303244,43.584 7.33203244,43.938 7.60103244,44.354 C8.34303244,45.5 7.89103244,46.829 6.40003244,47.504 C6.3456615,47.5190794 6.29303603,47.5398614 6.24303244,47.566 L4.64403244,48.715 L4.48803244,48.808 L4.51803244,48.838 C3.77503244,49.192 3.13203244,49.676 2.70003244,50.331 C2.07258724,51.2696735 1.91736672,52.4467624 2.28003244,53.516 C2.61603244,54.482 3.37203244,55.286 4.39403244,55.807 C4.45003244,55.835 4.49203244,55.874 4.55003244,55.902 L6.13803244,57.128 C6.18503244,57.176 6.23803244,57.218 6.29403244,57.254 C6.83103244,57.489 7.27003244,57.843 7.54003244,58.259 C8.28203244,59.405 7.83003244,60.735 6.33803244,61.409 L6.18203244,61.471 L4.58203244,62.621 L4.42603244,62.713 L4.45703244,62.744 C3.71303244,63.097 3.07103244,63.581 2.63803244,64.236 C2.01003244,65.187 1.86603244,66.335 2.18703244,67.328 C2.49703244,68.288 3.22203244,69.11 4.20803244,69.649 L4.30103244,69.711 C4.30703244,69.721 4.29403244,69.737 4.30103244,69.742 C4.38303244,69.806 4.49703244,69.876 4.64403244,69.994 C4.93803244,70.231 5.35203244,70.584 5.79603244,70.968 C6.65103244,71.706 7.63003244,72.633 8.25403244,73.385 C8.2472985,73.4894071 8.23628927,73.5934944 8.22103244,73.697 C8.17003244,74.071 8.06903244,74.66 8.33903244,75.292 C8.51903244,75.712 8.77103244,75.892 9.08503244,76.202 C9.39903244,76.512 9.78803244,76.859 10.2370324,77.237 C11.1350324,77.994 12.2600324,78.877 13.3510324,79.751 C14.4420324,80.626 15.5010324,81.507 16.2460324,82.201 L28.6420324,92.284 C45.4390324,93.558 62.2400324,93.741 79.0490324,92.19 L79.0490324,92.196 Z" id="path-18"></path>
        <radialGradient cx="44.618366%" cy="-26.9683976%" fx="44.618366%" fy="-26.9683976%" r="412.105495%" gradientTransform="translate(0.446184,-0.269684),scale(0.182567,1.000000),rotate(-1.598829),translate(-0.446184,0.269684)" id="radialGradient-20">
            <stop stop-color="#6B6B6B" offset="0%"></stop>
            <stop stop-color="#393B3A" offset="70.1%"></stop>
            <stop stop-color="#A4A4A2" offset="84.7%"></stop>
            <stop stop-color="#FFFFFF" offset="97.5%"></stop>
            <stop stop-color="#797A78" offset="100%"></stop>
        </radialGradient>
        <radialGradient cx="42.7490591%" cy="-15.4756097%" fx="42.7490591%" fy="-15.4756097%" r="407.335898%" gradientTransform="translate(0.427491,-0.154756),scale(0.164664,1.000000),rotate(-0.963086),translate(-0.427491,0.154756)" id="radialGradient-21">
            <stop stop-color="#6B6B6B" offset="0%"></stop>
            <stop stop-color="#FFFFFF" offset="79.1%"></stop>
            <stop stop-color="#A4A4A2" offset="87.5%"></stop>
            <stop stop-color="#525453" offset="95.3%"></stop>
            <stop stop-color="#363837" offset="100%"></stop>
        </radialGradient>
        <radialGradient cx="43.3859307%" cy="-24.6539641%" fx="43.3859307%" fy="-24.6539641%" r="404.593462%" gradientTransform="translate(0.433859,-0.246540),scale(0.180820,1.000000),rotate(-1.598829),translate(-0.433859,0.246540)" id="radialGradient-22">
            <stop stop-color="#6B6B6B" offset="0%"></stop>
            <stop stop-color="#393B3A" offset="70.1%"></stop>
            <stop stop-color="#A4A4A2" offset="84.7%"></stop>
            <stop stop-color="#FFFFFF" offset="97.5%"></stop>
            <stop stop-color="#797A78" offset="100%"></stop>
        </radialGradient>
        <radialGradient cx="43.2552555%" cy="-1.93782881%" fx="43.2552555%" fy="-1.93782881%" r="359.342934%" gradientTransform="translate(0.432553,-0.019378),scale(0.185006,1.000000),rotate(-0.963071),translate(-0.432553,0.019378)" id="radialGradient-23">
            <stop stop-color="#6B6B6B" offset="0%"></stop>
            <stop stop-color="#FFFFFF" offset="79.1%"></stop>
            <stop stop-color="#A4A4A2" offset="87.5%"></stop>
            <stop stop-color="#525453" offset="95.3%"></stop>
            <stop stop-color="#363837" offset="100%"></stop>
        </radialGradient>
        <linearGradient x1="-1.64289583%" y1="-21423.058%" x2="101.685021%" y2="-21423.058%" id="linearGradient-24">
            <stop stop-color="#6B6B6B" offset="0%"></stop>
            <stop stop-color="#FFFFFF" offset="79.1%"></stop>
            <stop stop-color="#A4A4A2" offset="87.5%"></stop>
            <stop stop-color="#525453" offset="95.3%"></stop>
            <stop stop-color="#363837" offset="100%"></stop>
        </linearGradient>
    </defs>
    <g id="Page-1" stroke="none" stroke-width="1" fill="none" fill-rule="evenodd">
        <g id="Group" transform="translate(0.003670, 0.174533)">
            <path d="M168.699589,304.742165 C168.699589,309.135684 145.034065,312.698771 115.840224,312.698771 C86.6463824,312.698771 62.9872201,309.135684 62.9872201,304.742165 C62.9872201,300.348646 86.6527441,296.785559 115.846585,296.785559 C145.040427,296.785559 168.699589,300.348646 168.699589,304.742165 Z" id="Path" stroke="url(#linearGradient-1)" stroke-width="2.61775664" fill="#404E58" fill-rule="nonzero"></path>
            <path d="M98.41033,230.779467 C102.08133,228.783467 106.32033,227.845467 110.46933,227.351467 C114.65233,226.853467 118.98533,226.939467 123.09633,227.856467 C127.11633,228.752467 131.61633,229.696467 134.48233,232.654467 C135.05933,233.249467 135.24433,234.157467 135.37533,234.975467 C136.28833,240.707467 135.00233,246.585467 134.48233,252.365467 C134.03933,257.289467 132.48733,262.133467 132.58833,267.075467 C132.66533,270.832467 134.16533,274.443467 134.48233,278.187467 C135.79233,293.668467 134.48233,324.797467 134.48233,324.797467 L96.26833,324.797467 C96.28733,310.880467 94.87933,293.655467 96.32833,278.187467 C96.68033,274.435467 98.33833,270.843467 98.41533,267.075467 C98.51533,262.121467 96.62733,257.307467 96.26833,252.365467 C95.79233,245.812467 93.55333,238.637467 96.26833,232.655467 C96.66033,231.790467 97.57733,231.233467 98.41133,230.779467 L98.41033,230.779467 Z" id="Path" fill="url(#linearGradient-2)" fill-rule="nonzero" opacity="0.7"></path>
            <path d="M114.97633,252.526805 C118.34333,252.547367 121.69933,253.624816 125.06533,253.536399 C127.46733,253.474713 130.51133,249.033321 132.25333,252.434276 C134.11933,256.081975 132.05333,263.019593 132.07333,268.314308 C132.09233,273.031231 133.91533,279.018886 132.34233,282.450683 C128.34033,291.183365 120.67533,283.417097 114.84233,283.186803 C109.52233,282.975014 102.60633,289.120996 98.90533,281.258087 C97.33133,277.914706 98.85733,271.94967 98.72633,267.30677 C98.60133,262.85921 96.71833,257.344481 98.14633,253.994932 C99.55033,250.702955 102.40233,253.630984 104.53033,253.44387 C108.01233,253.141609 111.49133,252.506243 114.97633,252.526805 L114.97633,252.526805 Z" id="Path" fill="url(#linearGradient-3)" fill-rule="nonzero"></path>
            <polyline id="Path" fill="url(#linearGradient-4)" fill-rule="nonzero" opacity="0.7" points="108.53433 273.739467 122.10533 273.739467 122.10533 334.810467 108.53433 334.810467 108.53433 273.739467"></polyline>
            <path d="M124.69783,274.380462 C124.69783,277.068311 120.49993,279.246459 115.32238,279.246459 C110.14483,279.246459 105.94798,277.067691 105.94798,274.380462 C105.94798,271.693233 110.14483,269.514465 115.32238,269.514465 C120.49993,269.514465 124.69783,271.693233 124.69783,274.380462 Z" id="Path" fill="url(#radialGradient-5)" fill-rule="nonzero" opacity="0.5"></path>
            <path d="M134.73943,233.914955 C134.73943,237.650827 126.06377,240.67826 115.3635,240.67826 C104.66323,240.67826 95.98974,237.649966 95.98974,233.914955 C95.98974,230.179944 104.66323,227.151649 115.3635,227.151649 C126.06377,227.151649 134.73943,230.179944 134.73943,233.914955 Z" id="Path" fill="url(#radialGradient-6)" fill-rule="nonzero" opacity="0.5"></path>
            <polyline id="Path" fill="url(#linearGradient-7)" fill-rule="nonzero" opacity="0.7" points="108.53433 166.469467 122.10533 166.469467 122.10533 232.897467 108.53433 232.897467 108.53433 166.469467"></polyline>
            <path d="M125.404518,170.084371 C125.404518,172.032597 120.880381,173.611378 115.300462,173.611378 C109.720542,173.611378 105.197537,172.032148 105.197537,170.084371 C105.197537,168.136594 109.720542,166.557364 115.300462,166.557364 C120.880381,166.557364 125.404518,168.136594 125.404518,170.084371 Z" id="Path" fill="url(#radialGradient-8)" fill-rule="nonzero"></path>
            <path d="M125.404518,169.194371 C125.404518,171.142597 120.880381,172.721378 115.300462,172.721378 C109.720542,172.721378 105.197537,171.142148 105.197537,169.194371 C105.197537,167.246594 109.720542,165.667364 115.300462,165.667364 C120.880381,165.667364 125.404518,167.246594 125.404518,169.194371 Z" id="Path" fill="url(#radialGradient-8)" fill-rule="nonzero"></path>
            <path d="M99.66633,328.446467 C100.35233,308.754467 101.00533,289.060467 101.62433,269.365467 C102.04433,256.026467 102.43933,242.557467 99.91933,229.451467 C98.02933,219.626467 94.53533,210.192467 90.95033,200.851467 C83.2120629,180.686434 74.9822739,160.713475 66.26833,140.950467 L67.18133,140.833467 L72.86933,153.356467 M130.65633,328.446467 C129.97033,308.754467 129.31733,289.060467 128.69833,269.365467 C128.27833,256.026467 127.88333,242.557467 130.40333,229.451467 C132.29333,219.626467 135.78733,210.192467 139.37133,200.851467 C147.109928,180.686425 155.34005,160.713466 164.05433,140.950467 L163.14133,140.833467 L157.45333,153.356467" id="Shape" stroke="#394D5A" stroke-linecap="round" stroke-linejoin="round"></path>
            <g transform="translate(85.990683, 122.839495)" id="Shape" stroke="#394D5A" stroke-width="0.5">
                <path d="M-1.42108547e-14,0 C0.80074644,2.305176 1.70631162,4.577184 2.71239969,6.8052444 C3.21673248,7.9246644 3.76660128,9.0598392 4.67560314,9.9081108 C5.1292449,10.3326612 5.670522,10.6776084 6.271941,10.8650076 C6.87336,11.0524068 7.53578007,11.0789412 8.1363399,10.8890544 C8.7463506,10.69668 9.2704443,10.2895428 9.63902823,9.7829016 C10.0076122,9.2762604 10.2215455,8.6750904 10.3066033,8.0623116 C10.4492255,7.0307868 10.2069396,5.9254632 9.51616692,5.1269436 C9.16992141,4.7289276 8.71713882,4.4130024 8.20851018,4.2405288 C7.69988154,4.0680552 7.13540685,4.0431792 6.61732734,4.1882892 C6.2203908,4.299402 5.85524355,4.5075312 5.5502382,4.7770212 C5.24523285,5.0465112 5.00122857,5.377362 4.81822536,5.7355764 C4.45135977,6.4503468 4.33451265,7.263792 4.33966767,8.0623116 C4.34825937,9.548238 4.76409765,11.0101176 5.35950246,12.379956 C5.95490727,13.7497944 6.72644193,15.041688 7.48508904,16.3335816 C10.3340968,21.1844016 13.0232989,26.1222876 15.838799,30.9921792 C18.8100868,36.1313871 21.921365,41.1940329 25.1693852,46.1748312 M58.1486256,0 C57.3478792,2.305176 56.442314,4.577184 55.4362259,6.8052444 C54.9318931,7.9246644 54.3820243,9.0598392 53.4730225,9.9081108 C53.0193807,10.3326612 52.4781036,10.6776084 51.8766846,10.8650076 C51.2752656,11.0524068 50.6128455,11.0789412 50.0122857,10.8890544 C49.402275,10.69668 48.8781813,10.2895428 48.5095974,9.7829016 C48.1410134,9.2762604 47.9270801,8.6750904 47.8420223,8.0623116 C47.6994001,7.0307868 47.941686,5.9254632 48.6324587,5.1269436 C48.9787042,4.7289276 49.4314868,4.4130024 49.9401154,4.2405288 C50.4487441,4.0680552 51.0132187,4.0431792 51.5312983,4.1882892 C51.9282348,4.299402 52.293382,4.5075312 52.5983874,4.7770212 C52.9033927,5.0465112 53.147397,5.377362 53.3304002,5.7347472 C53.6972658,6.4503468 53.8141129,7.263792 53.8089579,8.0623116 C53.8003662,9.548238 53.3845279,11.0101176 52.7891231,12.379956 C52.1937183,13.7497944 51.4221837,15.041688 50.6626774,16.3335816 C47.8136697,21.1844016 45.1253267,26.1222876 42.3098266,30.9921792 C39.3385256,36.1311076 36.2272475,41.1934768 32.9792404,46.174002"></path>
            </g>
            <polyline id="Path" stroke="#4E6472" stroke-width="3" points="66.27633 146.625467 93.77633 129.482467 135.56233 129.839467 164.49133 144.482467"></polyline>
            <g>
                <g id="Clipped" transform="translate(1373.480000, 901.790809)">
                    <mask id="mask-10" fill="white">
                        <use xlink:href="#path-9"></use>
                    </mask>
                    <g id="Path"></g>
                    <g id="Group" mask="url(#mask-10)" fill-rule="nonzero">
                        <g transform="translate(-1371.667410, -907.654786)" id="Shape">
                            <path d="M113.58974,0.0164436446 C98.3937405,0.275443645 83.0577405,4.60244364 69.2457405,10.9224436 C53.2557405,18.2394436 38.5187405,29.3904436 27.0577405,42.8914436 C16.4217405,55.4214436 7.93474049,70.5614436 3.90174049,86.6104436 C-1.28425951,107.244444 -1.16825951,129.764444 3.46374049,150.548444 C8.77874049,174.386444 24.8727405,194.329444 35.0267405,216.486444 C39.8017405,226.905444 45.6637405,236.954444 48.8377405,247.986444 C52.3117405,260.056444 50.4747405,273.330444 54.3697405,285.267444 C56.7607405,292.598444 59.2277405,300.833444 65.1197405,305.705444 C72.3817405,311.710444 82.7517405,312.515444 92.0257405,313.736444 C102.92874,315.173444 114.01574,313.376444 124.99474,312.830444 C132.23874,312.470444 139.57274,312.555444 146.71374,311.267444 C153.71574,310.005444 161.43874,309.487444 167.21374,305.267444 C170.97374,302.521444 173.30474,297.977444 175.11974,293.642444 C178.25074,286.166444 178.13474,277.672444 179.86974,269.736444 C182.35974,258.343444 183.83774,246.592444 187.96374,235.706444 C194.62774,218.119444 206.91374,203.231444 214.52574,186.049444 C221.52774,170.243444 229.75274,154.369444 231.99474,137.174444 C234.41474,118.616444 234.10374,98.6144436 227.30674,81.2054436 C218.02674,57.4354436 200.93974,35.8534436 180.40074,21.1114436 C163.03174,8.64544364 141.28674,1.47744364 120.08874,0.142443645 C117.924601,0.0142744043 115.756207,-0.0274254823 113.58874,0.0174436446 L113.58974,0.0164436446 Z M113.99574,40.2034436 C115.49574,40.1784436 117.02674,40.2284436 118.62074,40.3284436 C135.63174,41.3994436 153.55074,47.3934436 166.87074,56.9534436 C183.64374,68.9914436 198.18274,87.3994436 205.68274,106.609444 C210.37474,118.625444 211.07474,134.957444 208.96474,151.140444 C207.42674,162.932444 200.66974,176.953444 193.27574,193.640444 C187.40074,206.901444 174.72174,222.112444 166.24574,244.484444 C160.80874,258.832444 159.37074,271.755444 157.18274,281.765444 C154.66274,293.289444 154.31374,300.164444 153.68274,301.671444 C153.29874,302.587444 153.11874,302.803444 152.83874,303.265444 C151.42574,303.535444 148.19074,304.380444 142.58874,305.390444 C138.42174,306.141444 132.10874,306.197444 123.83874,306.608444 C111.06674,307.244444 101.40874,308.539444 95.0587405,307.702444 C85.5337405,306.447444 80.7797405,304.921444 80.4017405,304.921444 L80.4017405,304.890444 C80.2187405,304.120444 78.3447405,300.811444 76.4647405,295.046444 C74.8167405,289.996444 76.4817405,277.036444 71.1517405,258.516444 C66.9117405,243.782444 60.2837405,232.781444 56.1517405,223.766444 C44.3237405,197.958444 29.8977405,179.256444 26.1517405,162.453444 C22.2757405,145.064444 22.2397405,125.951444 26.4327405,109.265444 C29.4327405,97.3314436 36.1827405,85.0154436 44.7777405,74.8904436 C53.9517405,64.0824436 66.0997405,54.9054436 78.9027405,49.0464436 C90.4727405,43.7524436 102.97474,40.3904436 113.99674,40.2034436 L113.99574,40.2034436 Z" fill="#5E8DBD" opacity="0.367"></path>
                            <path d="M113.58974,4.95644364 C98.3937405,5.21544364 83.0577405,9.57344364 69.2457405,15.8944436 C53.2557405,23.2114436 38.5187405,34.3624436 27.0577405,47.8634436 C16.4217405,60.3934436 7.96574049,75.5334436 3.93274049,91.5824436 C-1.25325951,112.216444 -1.13725951,134.736444 3.49474049,155.520444 C8.80974049,179.358444 24.8707405,199.301444 35.0257405,221.458444 C39.8017405,231.877444 45.6637405,241.926444 48.8377405,252.958444 C52.3117405,265.028444 50.4747405,278.302444 54.3697405,290.239444 C56.7607405,297.570444 59.2277405,305.805444 65.1197405,310.677444 C72.3817405,316.682444 82.7837405,317.487444 92.0577405,318.708444 C102.96074,320.145444 114.04774,318.348444 125.02674,317.802444 C132.27074,317.442444 139.57374,317.527444 146.71474,316.240444 C153.71574,314.977444 161.43974,314.458444 167.21474,310.240444 C170.97474,307.493444 173.30474,302.949444 175.12074,298.615444 C178.25074,291.138444 178.13574,282.644444 179.87074,274.709444 C182.36074,263.316444 183.87074,251.565444 187.99574,240.678444 C194.65974,223.092444 206.91474,208.203444 214.52574,191.022444 C221.52874,175.216444 229.78474,159.341444 232.02574,142.147444 C234.44574,123.589444 234.13574,103.555444 227.33874,86.1474436 C218.05874,62.3764436 200.97174,40.8264436 180.43274,26.0854436 C163.06374,13.6194436 141.28774,6.45144364 120.08874,5.11544364 C117.925019,4.97683944 115.75662,4.92479788 113.58874,4.95944364 L113.58974,4.95644364 Z M116.77774,12.7060689 C117.819692,12.7060689 118.861523,12.729278 119.90274,12.7684436 C140.39274,13.5124436 160.55274,21.1004436 177.68274,32.8624436 C198.20274,46.9504436 214.65774,67.2564436 222.74574,90.5814436 C228.66674,107.658444 230.13274,126.269444 227.24574,144.175444 C224.58874,160.647444 218.32074,176.567444 210.27574,191.550444 C201.57374,207.758444 190.44574,223.468444 183.49574,241.800444 C179.17274,253.200444 176.69974,265.092444 175.08874,276.894444 C173.96674,285.113444 173.21674,292.930444 170.62074,299.706444 C169.12074,303.620444 166.98174,307.074444 164.21374,309.269444 C162.10874,310.938444 159.32074,312.119444 156.27674,312.862444 C153.22274,313.609444 149.88074,313.935444 146.30774,314.237444 C139.13374,314.844444 131.90774,315.342444 124.68274,315.800444 C113.71974,316.495444 102.92274,317.139444 92.2447405,316.737444 C87.6177405,316.563444 83.1387405,316.153444 79.0257405,315.112444 C74.9357405,314.078444 71.1657405,312.360444 68.2757405,309.862444 C63.5257405,305.760444 60.6857405,299.118444 59.0877405,292.018444 C56.4977405,280.511444 56.7577405,267.651444 53.5257405,254.612444 C50.5707405,242.696444 44.9137405,232.000444 39.2447405,221.893444 C27.2047405,200.428444 14.1917405,179.748444 8.11974049,157.081444 C2.76774049,137.103444 2.91974049,115.631444 8.55674049,95.7374436 C12.9027405,80.4024436 20.4927405,65.9444436 30.7447405,53.7684436 C41.7127405,40.7414436 55.7497405,30.2944436 71.2757405,23.1124436 C85.5807405,16.4954436 101.19574,12.6624436 116.77574,12.7060689 L116.77774,12.7060689 Z" fill="#233A63"></path>
                        </g>
                    </g>
                </g>
                <path d="M65.71633,305.635467 C59.79133,300.516467 56.69433,292.837467 54.97533,285.198467 C52.21333,272.925467 52.46633,260.105467 49.43933,247.895467 C46.67133,236.733467 41.25033,226.430467 35.62533,216.400467 C23.66933,195.085467 10.40533,174.060467 4.08133,150.453467 C-1.49867,129.623467 -1.36067,107.286467 4.51833,86.5394668 C9.04833,70.5484668 16.96033,55.5114668 27.66433,42.7974668 C39.11833,29.1944668 53.71433,18.3114668 69.85433,10.8454668 C85.72233,3.5054668 103.22133,-0.569533198 120.69333,0.0644668022 C142.25233,0.847466802 163.23333,8.8044668 181.01933,21.0144668 C202.32433,35.6414668 219.45833,56.6894668 227.92533,81.1064668 C234.12233,98.9774668 235.62133,118.408467 232.60933,137.082467 C229.84133,154.245467 223.35733,170.648467 215.13333,185.966467 C206.24433,202.523467 195.24733,218.058467 188.58533,235.630467 C184.44333,246.556467 182.05733,258.079467 180.47733,269.657467 C179.37633,277.727467 178.63233,285.955467 175.71833,293.560467 C174.02233,297.987467 171.52533,302.230467 167.81033,305.176467 C164.97833,307.422467 161.55033,308.823467 158.04033,309.681467 C154.53033,310.539467 150.91433,310.878467 147.31333,311.183467 C140.08533,311.794467 132.84733,312.279467 125.60833,312.738467 C114.63333,313.433467 103.63433,314.069467 92.64533,313.656467 C87.87133,313.476467 83.07833,313.095467 78.44733,311.923467 C73.81633,310.751467 69.32933,308.756467 65.71533,305.633467" id="Path" fill="url(#linearGradient-11)" fill-rule="nonzero" opacity="0.367"></path>
            </g>
            <path d="M81.39633,33.0354668 C67.60533,35.0434668 56.85233,47.3044668 47.75633,57.8634668 C38.44633,68.6704668 31.21233,81.8454668 27.72533,95.6754668 C23.22033,113.543467 23.33433,132.972467 27.35033,150.956467 C31.94333,171.523467 45.85133,188.830467 54.63133,207.987467 C58.75933,216.993467 63.82933,225.685467 66.56933,235.206467 C69.57733,245.660467 67.96833,257.149467 71.35033,267.487467 C73.42033,273.811467 75.52033,280.921467 80.66333,285.143467 C86.92133,290.282467 96.01233,290.453467 103.94333,292.080467 C104.74533,292.245467 105.76333,292.896467 106.38133,292.362467 C108.69133,290.365467 106.53433,286.256467 106.66333,283.205467 C108.33833,243.350467 113.35833,203.595467 113.03833,163.705467 C112.70833,122.837467 129.16633,74.0074668 104.53833,41.3954668 C99.59533,34.8504668 89.51333,31.8554668 81.39733,33.0364668 L81.39633,33.0354668 Z" id="Path" fill="url(#linearGradient-12)" fill-rule="nonzero" opacity="0.7"></path>
            <g transform="translate(88.286330, 393.777467)" id="Path">
                <path d="M49.1421428,13.302129 C49.1421428,14.868173 40.7324236,16.137046 30.3597283,16.137046 C19.987033,16.137046 11.5773139,14.868173 11.5773139,13.302129 C11.5773139,11.736085 19.987033,10.467212 30.3597283,10.467212 C40.7324236,10.467212 49.1421428,11.736085 49.1421428,13.302129 Z" stroke="url(#linearGradient-13)" stroke-width="2.19556327"></path>
                <path d="M4.26325641e-14,-5.68434189e-14 L0.375,0.53 L6.406,6.156 C7.789,7.598 9.077,9.23 10.344,10.906 C10.894,11.635 11.436,12.132 11.624,12.625 C11.5483672,12.7238556 11.5050656,12.8436332 11.5,12.968 C11.5,13.142 11.614,13.303 11.812,13.468 C13.402,14.791 21.06,15.781 30.282,15.781 C40.654,15.781 49.062,14.534 49.062,12.968 C49.062,12.827 48.976,12.667 48.844,12.531 C48.848,12.384 48.871,11.891 49.469,10.968 C50.144,9.924 51.249,8.343 51.249,8.343 C51.167,7.928 54.589,4.892 55.062,4.281 L56.453,3.236 L4.26325641e-14,-5.68434189e-14 L4.26325641e-14,-5.68434189e-14 Z" fill="#212322" fill-rule="nonzero"></path>
                <path d="M0,0 L0.375,0.53 L6.406,6.156 C7.789,7.598 9.077,9.23 10.344,10.906 C10.894,11.635 11.436,12.132 11.624,12.625 C11.5483672,12.7238556 11.5050656,12.8436332 11.5,12.968 C11.5,13.142 11.614,13.303 11.812,13.468 C13.402,14.791 21.06,15.781 30.282,15.781 C40.654,15.781 49.062,14.534 49.062,12.968 C49.062,12.827 48.976,12.667 48.844,12.531 C48.848,12.384 48.871,11.891 49.469,10.968 C50.144,9.924 51.249,8.343 51.249,8.343 C51.167,7.928 54.589,4.892 55.062,4.281 L56.453,3.236 L0,0 L0,0 Z" fill="url(#linearGradient-14)" fill-rule="nonzero"></path>
            </g>
            <g transform="translate(62.901578, 305.815467)">
                <path d="M79.4417516,91.847 C87.5997516,85.312 95.7577516,78.777 102.074752,70.632 C103.174752,68.927 101.884752,67.403 101.829752,67.388 C100.340752,66.706 99.6297516,65.905 100.377752,64.762 C100.647752,64.347 101.088752,63.995 101.627752,63.762 C101.684666,63.7268678 101.737058,63.6848877 101.783752,63.637 L103.377752,62.418 C103.434752,62.392 103.477752,62.353 103.533752,62.324 C104.557752,61.807 105.317752,61.007 105.658752,60.043 C106.026505,58.9750142 105.876446,57.7967223 105.252752,56.855 C104.822752,56.198 104.182752,55.712 103.439752,55.355 L103.470752,55.325 L103.314752,55.23 L101.720752,54.074 C101.671064,54.0479331 101.618777,54.0271526 101.564752,54.012 C100.075752,53.33 99.6297516,51.999 100.377752,50.856 C100.647752,50.441 101.088752,50.089 101.627752,49.856 C101.684666,49.8208678 101.737058,49.7788877 101.783752,49.731 L103.377752,48.481 C103.434752,48.455 103.477752,48.416 103.533752,48.387 C104.557752,47.87 105.317752,47.07 105.658752,46.106 C106.026505,45.0380142 105.876446,43.8597223 105.252752,42.918 C104.822752,42.261 104.182752,41.774 103.439752,41.418 L103.470752,41.387 L103.314752,41.293 L101.720752,40.137 C101.671064,40.1109331 101.618777,40.0901526 101.564752,40.075 C100.075752,39.393 99.6297516,38.061 100.376752,36.919 C100.648752,36.504 101.088752,36.152 101.626752,35.919 C101.684073,35.8836243 101.736806,35.8413039 101.783752,35.793 L103.376752,34.575 C103.434752,34.549 103.476752,34.51 103.533752,34.481 C104.557752,33.964 105.317752,33.164 105.658752,32.2 C106.026212,31.131861 105.875783,29.953559 105.251752,29.012 C104.822752,28.355 104.181752,27.868 103.439752,27.512 L103.470752,27.481 L103.314752,27.387 L101.720752,26.231 C101.671064,26.2049331 101.618777,26.1841526 101.564752,26.169 C100.075752,25.487 99.6297516,24.155 100.377752,23.012 C100.624752,22.634 100.943752,22.295 101.220752,22.169 C101.383752,22.095 101.355752,22.089 101.377752,22.075 L101.439752,22.044 C101.472752,22.018 101.489752,21.986 101.533752,21.95 C101.621752,21.879 101.765752,21.788 101.908752,21.668 C102.194752,21.43 102.558752,21.106 103.001752,20.731 C103.889752,19.982 104.600752,19.562 105.510752,18.793 C105.535752,13.54 105.705752,6.855 105.961752,1.303 C60.5447516,13.138 19.0717516,6.257 0.857751635,0 C-0.898248365,2.518 0.622751635,6.23 0.400751635,9.124 C1.04775164,9.984 1.72075164,10.823 2.25275164,11.731 C3.16275164,12.501 4.27075164,13.451 5.15875164,14.2 C5.60275164,14.574 5.96575164,14.899 6.25275164,15.137 C6.39575164,15.257 6.53975164,15.347 6.62775164,15.418 C6.67075164,15.454 6.68775164,15.486 6.72075164,15.512 L6.78375164,15.543 C6.80375164,15.558 6.77775164,15.563 6.93975164,15.637 C7.21675164,15.763 7.53675164,16.103 7.78375164,16.481 C8.53075164,17.624 8.08475164,18.956 6.59575164,19.637 C6.54172595,19.6521526 6.48943961,19.6729331 6.43975164,19.699 L4.84575164,20.856 L4.68975164,20.95 L4.72075164,20.98 C3.97875164,21.337 3.33775164,21.824 2.90875164,22.48 C2.28472063,23.421559 2.13429123,24.599861 2.50175164,25.668 C2.84275164,26.633 3.60175164,27.432 4.62675164,27.949 C4.68375164,27.977 4.72575164,28.016 4.78375164,28.043 L6.37675164,29.263 C6.42375164,29.31 6.47675164,29.353 6.53375164,29.387 C7.07175164,29.621 7.51275164,29.972 7.78375164,30.387 C8.53075164,31.53 8.08475164,32.862 6.59575164,33.543 L6.43975164,33.605 L4.84575164,34.762 L4.68975164,34.856 L4.72075164,34.886 C3.97875164,35.243 3.33775164,35.73 2.90875164,36.386 C2.28472063,37.327559 2.13429123,38.505861 2.50175164,39.574 C2.84275164,40.538 3.60175164,41.338 4.62675164,41.855 C4.68375164,41.883 4.72575164,41.922 4.78375164,41.949 L6.37675164,43.199 C6.42375164,43.247 6.47675164,43.289 6.53375164,43.324 C7.07175164,43.558 7.51175164,43.91 7.78375164,44.324 C8.53075164,45.467 8.08375164,46.799 6.59575164,47.481 L6.43975164,47.543 L4.84575164,48.699 L4.68975164,48.793 L4.72075164,48.823 C3.97875164,49.18 3.33775164,49.667 2.90875164,50.323 C2.28472063,51.264559 2.13429123,52.442861 2.50175164,53.511 C2.84275164,54.476 3.60175164,55.276 4.62675164,55.793 C4.68275164,55.821 4.72575164,55.86 4.78375164,55.887 L6.37675164,57.105 C6.42375164,57.153 6.47675164,57.195 6.53375164,57.23 C7.07175164,57.464 7.51175164,57.816 7.78375164,58.23 C8.53075164,59.373 8.08375164,60.705 6.59575164,61.387 C6.54172595,61.4021526 6.48943961,61.4229331 6.43975164,61.449 L4.84575164,62.605 L4.68975164,62.699 L4.72075164,62.729 C3.97875164,63.086 3.33775164,63.573 2.90875164,64.229 C2.28475164,65.184 2.14575164,66.332 2.47075164,67.324 C2.78575164,68.282 3.51375164,69.101 4.50175164,69.636 L4.59575164,69.698 C4.60175164,69.698 4.58875164,69.724 4.59575164,69.729 C4.67775164,69.793 4.79175164,69.861 4.93975164,69.979 C5.23475164,70.215 5.64975164,70.566 6.09575164,70.948 C6.95475164,71.683 7.93775164,72.605 8.56475164,73.354 C8.56075164,73.42 8.55475164,73.511 8.53375164,73.667 C8.48375164,74.04 8.38475164,74.63 8.65875164,75.26 C8.83975164,75.68 9.09275164,75.859 9.40875164,76.167 C9.72475164,76.475 10.1137516,76.822 10.5647516,77.197 C11.4647516,77.95 12.5947516,78.827 13.6897516,79.697 C14.7847516,80.567 15.8467516,81.444 16.5957516,82.135 L29.0357516,92.163 C45.8377516,93.363 62.6397516,93.471 79.4417516,91.846 L79.4417516,91.847 Z" id="Path" fill="url(#linearGradient-15)" fill-rule="nonzero"></path>
                <path d="M80.7047516,91.846 C88.8627516,85.312 97.0207516,78.777 103.337752,70.632 C104.437752,68.927 103.147752,67.403 103.092752,67.388 C54.5327516,68.086 -8.53724836,31.961 3.73375164,67.324 C4.04875164,68.282 4.77775164,69.101 5.76475164,69.636 L5.85875164,69.698 C5.86475164,69.698 5.85175164,69.724 5.85875164,69.729 C5.94175164,69.793 6.05475164,69.861 6.20275164,69.979 C6.49775164,70.215 6.91275164,70.566 7.35875164,70.948 C8.21775164,71.683 9.20075164,72.605 9.82775164,73.354 C9.82375164,73.42 9.81775164,73.511 9.79675164,73.667 C9.74675164,74.04 9.64775164,74.63 9.92175164,75.26 C10.1027516,75.68 10.3557516,75.859 10.6717516,76.167 C10.9877516,76.475 11.3767516,76.822 11.8277516,77.197 C12.7287516,77.95 13.8577516,78.827 14.9527516,79.697 C16.0477516,80.567 17.1097516,81.444 17.8587516,82.135 L30.2987516,92.163 C47.1007516,93.363 63.9027516,93.471 80.7047516,91.846 Z" id="Path" fill="url(#linearGradient-16)" fill-rule="nonzero"></path>
                <path d="M79.4877516,91.758 C87.6447516,85.223 95.8027516,78.688 102.119752,70.544 C103.219752,68.838 101.929752,67.314 101.875752,67.299 L2.51575164,67.235 C2.83075164,68.195 3.55975164,69.012 4.54775164,69.548 L4.64075164,69.61 C4.64675164,69.61 4.63375164,69.636 4.64075164,69.64 C4.72375164,69.705 4.83775164,69.773 4.98475164,69.89 C5.27975164,70.126 5.69475164,70.478 6.14075164,70.86 C7.00075164,71.594 7.98275164,72.516 8.61075164,73.266 C8.60575164,73.332 8.59975164,73.422 8.57875164,73.578 C8.52875164,73.952 8.43075164,74.541 8.70375164,75.172 C8.88575164,75.592 9.13875164,75.771 9.45375164,76.078 C9.76875164,76.385 10.1597516,76.733 10.6097516,77.109 C11.5107516,77.862 12.6397516,78.739 13.7347516,79.609 C14.8297516,80.479 15.8927516,81.356 16.6407516,82.047 L29.0807516,92.075 C45.8837516,93.275 62.6857516,93.383 79.4877516,91.757 L79.4877516,91.758 Z" id="Path" fill="url(#linearGradient-17)" fill-rule="nonzero"></path>
                <g id="Clipped" transform="translate(423.139719, 671.904000)">
                    <mask id="mask-19" fill="white">
                        <use xlink:href="#path-18"></use>
                    </mask>
                    <g id="Path"></g>
                    <g id="Group" mask="url(#mask-19)">
                        <g transform="translate(-372.225861, -642.031884) rotate(-0.256000) translate(372.225861, 642.031884) translate(-426.831527, -679.231887)">
                            <path d="M16.2277713,58.4400049 C20.5080954,58.9440049 24.8244153,59.1120049 29.1290895,59.3700049 C33.5015205,59.6320049 37.8739515,60.0260049 42.2548521,60.0000049 C48.0597042,59.9640049 53.8476171,59.3930049 59.6344713,58.9550049 C66.1295958,58.4650049 72.6723618,58.2430049 79.0902012,57.1820049 C83.7537747,56.4120049 88.3601784,55.2740049 92.8501251,53.8580049 C95.6133321,52.9880049 98.8338975,51.9340049 100.918478,50.6900049 C105.142691,48.3600049 101.949652,52.1870049 102.148687,54.6980049 C102.281025,56.3630049 106.9266,56.1360049 104.424892,57.9030049 C103.152335,58.8010049 95.885418,61.8030049 91.3795908,63.1490049 C86.9626944,64.4690049 82.3562907,65.1630049 77.7858828,65.8870049 C71.4918958,66.8772588 65.1557164,67.6112709 58.7949222,68.0870049 C54.0339483,68.4480049 49.2518004,68.5840049 44.4760047,68.6010049 C39.5064669,68.6190049 34.5326943,68.4730049 29.5737435,68.1730049 C23.7720675,67.8230049 17.9280435,67.5980049 12.2184744,66.5680049 C9.41291938,66.0630049 5.87686138,65.1350049 3.98602318,64.3340049 C1.20270088,63.1560049 5.77099138,62.2920049 5.69476498,60.8190049 C5.60159938,59.0220049 1.52242828,56.1640049 4.67206078,56.5470049 C8.27164078,56.9840049 12.3476358,57.9830049 16.2277713,58.4400049 L16.2277713,58.4400049 Z" id="Path" fill="url(#radialGradient-20)" fill-rule="nonzero"></path>
                            <path d="M16.3759893,65.9800049 C25.3770567,66.9390049 34.4310591,67.5750049 43.490355,67.7180049 C56.5885914,67.3980049 68.4936729,66.5220049 80.6570772,64.4540049 C88.2490149,63.0840049 95.9563509,61.4970049 102.722503,57.8280049 C106.946716,55.4980049 109.000594,56.6910049 109.19857,59.2020049 C109.330908,60.8670049 108.446893,62.9170049 105.945185,64.6840049 C97.2680802,67.8240049 88.1187948,70.1300049 78.9769203,71.7750049 C68.0751543,73.3557675 57.0719921,74.2328002 46.0439394,74.4000049 C35.3182497,74.1140049 24.5343315,73.8380049 13.8806334,72.5460049 C10.7479401,72.0990049 6.49937698,71.3810049 4.60853878,70.5800049 C1.82415778,69.4010049 1.05236548,67.8230049 0.977197776,66.3500049 C0.884032176,64.5530049 1.86121228,63.8380049 5.01084478,64.2200049 C8.61042478,64.6580049 12.6959481,65.5450049 16.377048,65.9800049 L16.3759893,65.9800049 Z" id="Path" fill="url(#radialGradient-21)" fill-rule="nonzero"></path>
                            <path d="M16.2277713,45.0100049 C20.5080954,45.5140049 24.8244153,45.6820049 29.1290895,45.9400049 C33.5015205,46.2020049 37.8739515,46.5960049 42.2548521,46.5700049 C48.0597042,46.5340049 53.8476171,45.9630049 59.6344713,45.5250049 C66.1295958,45.0350049 72.6723618,44.8130049 79.0902012,43.7520049 C83.7537747,42.9820049 88.3601784,41.8440049 92.8501251,40.4280049 C95.6133321,39.5580049 98.8338975,38.5040049 100.918478,37.2600049 C105.142691,34.9300049 101.949652,38.7570049 102.148687,41.2680049 C102.281025,42.9330049 106.9266,42.7060049 104.424892,44.4730049 C103.152335,45.3710049 95.885418,48.3730049 91.3795908,49.7190049 C86.9626944,51.0390049 82.3562907,51.7330049 77.7858828,52.4570049 C71.4918958,53.4472588 65.1557164,54.1812709 58.7949222,54.6570049 C54.0339483,55.0180049 49.2518004,55.1540049 44.4760047,55.1710049 C39.5064669,55.1890049 34.5326943,55.0430049 29.5737435,54.7430049 C23.7720675,54.3930049 17.9280435,54.1680049 12.2184744,53.1380049 C9.41291938,52.6330049 5.87686138,51.7050049 3.98602318,50.9040049 C1.20270088,49.7260049 5.77099138,48.8620049 5.69476498,47.3890049 C5.60159938,45.5920049 1.52242828,42.7340049 4.67206078,43.1170049 C8.27164078,43.5540049 12.3476358,44.5530049 16.2277713,45.0100049 L16.2277713,45.0100049 Z" id="Path" fill="url(#radialGradient-20)" fill-rule="nonzero"></path>
                            <path d="M16.3759893,52.5500049 C25.3770567,53.5090049 34.4310591,54.1450049 43.490355,54.2880049 C56.5885914,53.9680049 68.4936729,53.0920049 80.6570772,51.0240049 C88.2490149,49.6540049 95.9563509,48.0670049 102.722503,44.3980049 C106.946716,42.0680049 109.000594,43.2610049 109.19857,45.7720049 C109.330908,47.4370049 108.446893,49.4870049 105.945185,51.2540049 C97.2680802,54.3940049 88.1187948,56.7000049 78.9769203,58.3450049 C68.0751543,59.9257675 57.0719921,60.8028002 46.0439394,60.9700049 C35.3182497,60.6840049 24.5343315,60.4080049 13.8806334,59.1160049 C10.7479401,58.6690049 6.49937698,57.9510049 4.60853878,57.1500049 C1.82415778,55.9710049 1.05236548,54.3930049 0.977197776,52.9200049 C0.884032176,51.1230049 1.86121228,50.4080049 5.01084478,50.7900049 C8.61042478,51.2280049 12.6959481,52.1150049 16.377048,52.5500049 L16.3759893,52.5500049 Z" id="Path" fill="url(#radialGradient-21)" fill-rule="nonzero"></path>
                            <path d="M16.2277713,31.4100049 C20.5080954,31.9140049 24.8244153,32.0820049 29.1290895,32.3400049 C33.5015205,32.6020049 37.8739515,32.9960049 42.2548521,32.9700049 C48.0597042,32.9340049 53.8476171,32.3630049 59.6344713,31.9250049 C66.1295958,31.4350049 72.6723618,31.2130049 79.0902012,30.1520049 C83.7537747,29.3820049 88.3601784,28.2440049 92.8501251,26.8280049 C95.6133321,25.9580049 98.8338975,24.9040049 100.918478,23.6600049 C105.142691,21.3300049 101.949652,25.1570049 102.148687,27.6680049 C102.281025,29.3330049 106.9266,29.1060049 104.424892,30.8730049 C103.152335,31.7710049 95.885418,34.7730049 91.3795908,36.1190049 C86.9626944,37.4390049 82.3562907,38.1330049 77.7858828,38.8570049 C71.4918958,39.8472588 65.1557164,40.5812709 58.7949222,41.0570049 C54.0339483,41.4180049 49.2518004,41.5540049 44.4760047,41.5710049 C39.5064669,41.5890049 34.5326943,41.4430049 29.5737435,41.1430049 C23.7720675,40.7930049 17.9280435,40.5680049 12.2184744,39.5380049 C9.41291938,39.0330049 5.87686138,38.1050049 3.98602318,37.3040049 C1.20270088,36.1260049 5.77099138,35.2620049 5.69476498,33.7890049 C5.60159938,31.9920049 1.52242828,29.1340049 4.67206078,29.5170049 C8.27164078,29.9540049 12.3476358,30.9530049 16.2277713,31.4100049 L16.2277713,31.4100049 Z" id="Path" fill="url(#radialGradient-20)" fill-rule="nonzero"></path>
                            <path d="M16.3759893,38.9500049 C25.3770567,39.9090049 34.4310591,40.5450049 43.490355,40.6880049 C56.5885914,40.3680049 68.4936729,39.4920049 80.6570772,37.4240049 C88.2490149,36.0540049 95.9563509,34.4670049 102.722503,30.7980049 C106.946716,28.4680049 109.000594,29.6610049 109.19857,32.1720049 C109.330908,33.8370049 108.446893,35.8870049 105.945185,37.6540049 C97.2680802,40.7940049 88.1187948,43.1000049 78.9769203,44.7450049 C68.0751543,46.3257675 57.0719921,47.2028002 46.0439394,47.3700049 C35.3182497,47.0840049 24.5343315,46.8080049 13.8806334,45.5160049 C10.7479401,45.0690049 6.49937698,44.3510049 4.60853878,43.5500049 C1.82415778,42.3710049 1.05236548,40.7930049 0.977197776,39.3200049 C0.884032176,37.5230049 1.86121228,36.8080049 5.01084478,37.1900049 C8.61042478,37.6280049 12.6959481,38.5150049 16.377048,38.9500049 L16.3759893,38.9500049 Z" id="Path" fill="url(#radialGradient-21)" fill-rule="nonzero"></path>
                            <g id="Group" stroke-width="1" fill="none" fill-rule="evenodd" transform="translate(0.971204, 9.000568)">
                                <path d="M15.2565676,8.81943674 C19.5368917,9.32343674 23.8532116,9.49143674 28.1578858,9.74943674 C32.5303168,10.0114367 36.9027478,10.4054367 41.2836484,10.3794367 C47.0885005,10.3434367 52.8764134,9.77243674 58.6632676,9.33443674 C65.1583921,8.84443674 71.7011581,8.62243674 78.1189975,7.56143674 C82.782571,6.79143674 87.3889747,5.65343674 91.8789214,4.23743674 C94.6421284,3.36743674 97.8626938,2.31343674 99.9472741,1.06943674 C103.610376,-0.95056326 106.835176,0.14643674 107.091842,2.24043674 C107.130554,2.56143674 104.656372,3.38343674 104.683898,3.71743674 C104.815177,5.38243674 105.955397,6.51443674 103.453688,8.28243674 C102.181131,9.18043674 94.9142143,12.1824367 90.4083871,13.5284367 C85.9914907,14.8484367 81.385087,15.5424367 76.8146791,16.2664367 C70.5206921,17.2566907 64.1845128,17.9907028 57.8237185,18.4664367 C53.0627446,18.8274367 48.2805967,18.9634367 43.504801,18.9804367 C38.5352632,18.9984367 33.5614906,18.8524367 28.6025398,18.5524367 C22.8008638,18.2024367 16.9568398,17.9774367 11.2472707,16.9474367 C8.4417157,16.4424367 4.9056577,15.5144367 3.0148195,14.7134367 C0.2314972,13.5354367 4.7997877,12.6714367 4.7235613,11.1984367 C4.6303957,9.40143674 0.5512246,6.54343674 3.7008571,6.92643674 C7.3004371,7.36343674 11.3764321,8.36243674 15.2565676,8.81943674 L15.2565676,8.81943674 Z" id="Path" fill="url(#radialGradient-22)" fill-rule="nonzero"></path>
                                <path d="M15.4047856,16.3594367 C24.405853,17.3184367 33.4598554,17.9544367 42.5191513,18.0974367 C55.6173877,17.7774367 67.5224692,16.9014367 79.6858735,14.8334367 C87.2778112,13.4634367 94.9851472,11.8764367 101.751299,8.20743674 C105.975512,5.87743674 108.02939,7.07043674 108.227367,9.58143674 C108.359704,11.2464367 107.47569,13.2964367 104.973982,15.0634367 C96.2968765,18.2034367 87.1475911,20.5094367 78.0057166,22.1544367 C67.1039506,23.7351993 56.1007884,24.612232 45.0727357,24.7794367 C34.347046,24.4934367 23.5631278,24.2174367 12.9094297,22.9254367 C9.7767364,22.4784367 5.5281733,21.7604367 3.6373351,20.9594367 C0.8529541,19.7804367 0.0811618,18.2024367 0.0059941,16.7294367 C-0.0871715,14.9324367 0.8900086,14.2174367 4.0396411,14.5994367 C7.6392211,15.0374367 11.7247444,15.9244367 15.4058443,16.3594367 L15.4047856,16.3594367 Z" id="Path" fill="url(#radialGradient-21)" fill-rule="nonzero"></path>
                            </g>
                            <path d="M15.0327233,4.09000487 C24.0337233,5.04900487 33.7657233,7.68800487 42.8257233,7.83100487 C55.9237233,7.51100487 68.0097233,8.07300487 80.1727233,6.00600487 C87.7647233,4.63600487 95.2137233,4.79700487 102.472723,2.63000487 C106.696723,0.301004873 108.995723,2.49500487 109.194723,5.00600487 C109.326723,6.67100487 108.442723,8.72000487 105.940723,10.4870049 C97.2637233,13.6270049 88.1147233,15.9340049 78.9727233,17.5780049 C68.0628545,19.1597875 57.0623982,20.036938 46.0397233,20.2040049 C35.3137233,19.9180049 24.5297233,19.6410049 13.8767233,18.3500049 C10.7447233,17.9030049 6.49572328,17.1840049 4.60472328,16.3830049 C1.82172328,15.2050049 1.04872328,13.6270049 0.972723276,12.1530049 C0.879723276,10.3570049 -1.53627672,-0.372995127 1.61372328,0.010004873 C5.21372328,0.447004873 11.3507233,3.65600487 15.0327233,4.09000487 L15.0327233,4.09000487 Z" id="Path" fill="url(#radialGradient-23)" fill-rule="nonzero"></path>
                        </g>
                    </g>
                </g>
            </g>
            <path d="M168.699589,304.742165 C168.699589,309.135684 145.034065,312.698771 115.840224,312.698771 C86.6463824,312.698771 62.9872201,309.135684 62.9872201,304.742165 C62.9872201,304.629668 62.9999435,304.517171 63.031752,304.404674" id="Path" stroke="url(#linearGradient-24)" stroke-width="2.61775664"></path>
        </g>
    </g>
</svg>