<?xml version="1.0" encoding="UTF-8"?>
<svg width="331px" height="1121px" viewBox="0 0 331 1121" version="1.1" xmlns="http://www.w3.org/2000/svg" xmlns:xlink="http://www.w3.org/1999/xlink">
    <title>Untitled</title>
    <defs>
        <linearGradient x1="-1.64289583%" y1="-11117.9949%" x2="101.685021%" y2="-11117.9949%" id="linearGradient-1">
            <stop stop-color="#6B6B6B" offset="0%"></stop>
            <stop stop-color="#FFFFFF" offset="79.1%"></stop>
            <stop stop-color="#A4A4A2" offset="87.5%"></stop>
            <stop stop-color="#525453" offset="95.3%"></stop>
            <stop stop-color="#363837" offset="100%"></stop>
        </linearGradient>
        <linearGradient x1="3.23613988%" y1="-734.156921%" x2="97.0750857%" y2="-734.156921%" id="linearGradient-2">
            <stop stop-color="#92A8B6" offset="0%"></stop>
            <stop stop-color="#718A9E" offset="13.7%"></stop>
            <stop stop-color="#7D96AA" offset="25%"></stop>
            <stop stop-color="#C3D0D6" offset="44.7%"></stop>
            <stop stop-color="#C1D5DC" offset="61.5%"></stop>
            <stop stop-color="#557284" offset="87%"></stop>
            <stop stop-color="#91AABE" offset="100%"></stop>
        </linearGradient>
        <linearGradient x1="-1399.24128%" y1="-5.9891148%" x2="-1399.24128%" y2="86.3320707%" id="linearGradient-3">
            <stop stop-color="#92A8B6" offset="0%"></stop>
            <stop stop-color="#718A9E" offset="22.6%"></stop>
            <stop stop-color="#7D96AA" offset="35.7%"></stop>
            <stop stop-color="#C3D0D6" offset="53%"></stop>
            <stop stop-color="#C1D5DC" offset="67.1%"></stop>
            <stop stop-color="#557284" offset="91.7%"></stop>
            <stop stop-color="#617D90" offset="100%"></stop>
        </linearGradient>
        <linearGradient x1="0.00736865375%" y1="-1251.51054%" x2="100.007369%" y2="-1251.51054%" id="linearGradient-4">
            <stop stop-color="#92A8B6" offset="0%"></stop>
            <stop stop-color="#718A9E" offset="13.7%"></stop>
            <stop stop-color="#7D96AA" offset="25%"></stop>
            <stop stop-color="#C3D0D6" offset="44.7%"></stop>
            <stop stop-color="#C1D5DC" offset="61.5%"></stop>
            <stop stop-color="#557284" offset="87%"></stop>
            <stop stop-color="#91AABE" offset="100%"></stop>
        </linearGradient>
        <radialGradient cx="49.9915999%" cy="49.9987272%" fx="49.9915999%" fy="49.9987272%" r="96.3363678%" gradientTransform="translate(0.499916,0.499987),scale(0.519044,1.000000),translate(-0.499916,-0.499987)" id="radialGradient-5">
            <stop stop-color="#92A8B6" offset="0%"></stop>
            <stop stop-color="#718A9E" offset="22.6%"></stop>
            <stop stop-color="#7D96AA" offset="35.7%"></stop>
            <stop stop-color="#C3D0D6" offset="53%"></stop>
            <stop stop-color="#C1D5DC" offset="67.1%"></stop>
            <stop stop-color="#557284" offset="91.7%"></stop>
            <stop stop-color="#617D90" offset="100%"></stop>
        </radialGradient>
        <radialGradient cx="49.9915999%" cy="49.9987272%" fx="49.9915999%" fy="49.9987272%" r="143.243047%" gradientTransform="translate(0.499916,0.499987),scale(0.349077,1.000000),translate(-0.499916,-0.499987)" id="radialGradient-6">
            <stop stop-color="#92A8B6" offset="0%"></stop>
            <stop stop-color="#718A9E" offset="22.6%"></stop>
            <stop stop-color="#7D96AA" offset="35.7%"></stop>
            <stop stop-color="#C3D0D6" offset="53%"></stop>
            <stop stop-color="#C1D5DC" offset="67.1%"></stop>
            <stop stop-color="#557284" offset="91.7%"></stop>
            <stop stop-color="#617D90" offset="100%"></stop>
        </radialGradient>
        <linearGradient x1="0.00736865375%" y1="-989.100982%" x2="100.007369%" y2="-989.100982%" id="linearGradient-7">
            <stop stop-color="#92A8B6" offset="0%"></stop>
            <stop stop-color="#718A9E" offset="13.7%"></stop>
            <stop stop-color="#7D96AA" offset="25%"></stop>
            <stop stop-color="#C3D0D6" offset="44.7%"></stop>
            <stop stop-color="#C1D5DC" offset="61.5%"></stop>
            <stop stop-color="#557284" offset="87%"></stop>
            <stop stop-color="#91AABE" offset="100%"></stop>
        </linearGradient>
        <radialGradient cx="49.9915999%" cy="49.9987272%" fx="49.9915999%" fy="49.9987272%" r="143.238382%" gradientTransform="translate(0.499916,0.499987),scale(0.349088,1.000000),translate(-0.499916,-0.499987)" id="radialGradient-8">
            <stop stop-color="#92A8B6" offset="0%"></stop>
            <stop stop-color="#718A9E" offset="22.6%"></stop>
            <stop stop-color="#7D96AA" offset="35.7%"></stop>
            <stop stop-color="#C3D0D6" offset="53%"></stop>
            <stop stop-color="#C1D5DC" offset="67.1%"></stop>
            <stop stop-color="#557284" offset="91.7%"></stop>
            <stop stop-color="#617D90" offset="100%"></stop>
        </radialGradient>
        <linearGradient x1="-0.00942818083%" y1="-8172.71215%" x2="100%" y2="-8172.71215%" id="linearGradient-9">
            <stop stop-color="#6B6B6B" offset="0%"></stop>
            <stop stop-color="#6E6E6E" offset="5.4%"></stop>
            <stop stop-color="#F3F3F1" offset="14%"></stop>
            <stop stop-color="#F1F1EF" offset="23.3%"></stop>
            <stop stop-color="#DEDEDC" offset="35.8%"></stop>
            <stop stop-color="#A9ABAA" offset="47.6%"></stop>
            <stop stop-color="#B8B8B6" offset="63.6%"></stop>
            <stop stop-color="#B8B8B6" offset="72.4%"></stop>
            <stop stop-color="#A4A4A2" offset="83.2%"></stop>
            <stop stop-color="#525453" offset="92.8%"></stop>
            <stop stop-color="#363837" offset="100%"></stop>
        </linearGradient>
        <linearGradient x1="-38.8287602%" y1="53.1530396%" x2="76.2049847%" y2="34.9453811%" id="linearGradient-10">
            <stop stop-color="#000000" offset="0%"></stop>
            <stop stop-color="#222423" offset="13.5%"></stop>
            <stop stop-color="#4C4E4D" offset="23%"></stop>
            <stop stop-color="#333534" offset="33.9%"></stop>
            <stop stop-color="#181A19" offset="43%"></stop>
            <stop stop-color="#6E6E6E" stop-opacity="0.478" offset="51.6%"></stop>
            <stop stop-color="#6E6E6E" stop-opacity="0.412" offset="58.3%"></stop>
            <stop stop-color="#6E6E6E" stop-opacity="0.325" offset="66.7%"></stop>
            <stop stop-color="#6E6E6E" stop-opacity="0.243" offset="74.8%"></stop>
            <stop stop-color="#6E6E6E" stop-opacity="0.145" offset="84.9%"></stop>
            <stop stop-color="#6E6E6E" stop-opacity="0.078" offset="91.7%"></stop>
            <stop stop-color="#6E6E6E" stop-opacity="0" offset="100%"></stop>
        </linearGradient>
        <linearGradient x1="0.00448429303%" y1="-1063.28534%" x2="100.002831%" y2="-1063.28534%" id="linearGradient-11">
            <stop stop-color="#6B6B6B" offset="0%"></stop>
            <stop stop-color="#6E6E6E" offset="5.4%"></stop>
            <stop stop-color="#F3F3F1" offset="14%"></stop>
            <stop stop-color="#F1F1EF" offset="23.3%"></stop>
            <stop stop-color="#DEDEDC" offset="35.8%"></stop>
            <stop stop-color="#A9ABAA" offset="47.6%"></stop>
            <stop stop-color="#B8B8B6" offset="63.6%"></stop>
            <stop stop-color="#B8B8B6" offset="72.4%"></stop>
            <stop stop-color="#A4A4A2" offset="83.2%"></stop>
            <stop stop-color="#525453" offset="92.8%"></stop>
            <stop stop-color="#363837" offset="100%"></stop>
        </linearGradient>
        <linearGradient x1="10.2289477%" y1="42.491582%" x2="67.8973958%" y2="63.8912321%" id="linearGradient-12">
            <stop stop-color="#6B6B6B" stop-opacity="0" offset="0%"></stop>
            <stop stop-color="#B8B8B6" stop-opacity="0" offset="72.4%"></stop>
            <stop stop-color="#A4A4A2" offset="83.2%"></stop>
            <stop stop-color="#525453" offset="92.8%"></stop>
            <stop stop-color="#363837" offset="100%"></stop>
        </linearGradient>
        <linearGradient x1="75.8036484%" y1="33.8345253%" x2="0.428800026%" y2="51.0657353%" id="linearGradient-13">
            <stop stop-color="#6B6B6B" stop-opacity="0" offset="0%"></stop>
            <stop stop-color="#B8B8B6" stop-opacity="0" offset="72.4%"></stop>
            <stop stop-color="#A4A4A2" offset="83.2%"></stop>
            <stop stop-color="#525453" offset="92.8%"></stop>
            <stop stop-color="#363837" offset="100%"></stop>
        </linearGradient>
        <path d="M79.0490324,92.196 C87.2350324,85.696 95.4220324,79.198 101.775032,71.082 C102.882032,69.381 101.599032,67.852 101.545032,67.836 C100.059032,67.147 99.3520324,66.343 100.104032,65.204 C100.377032,64.79 100.819032,64.44 101.358032,64.209 C101.415102,64.1740451 101.467807,64.1324187 101.515032,64.085 L103.115032,62.873 C103.172032,62.847 103.215032,62.808 103.271032,62.78 C104.298032,62.267 105.061032,61.471 105.406032,60.508 C105.778378,59.4418786 105.633493,58.263206 105.014032,57.319 C104.587032,56.66 103.949032,56.17 103.208032,55.811 L103.239032,55.781 L103.083032,55.685 L101.495032,54.522 C101.44519,54.4960096 101.392946,54.474911 101.339032,54.459 C99.8530324,53.77 99.4130324,52.437 100.165032,51.297 C100.438032,50.884 100.880032,50.534 101.420032,50.303 C101.477065,50.267991 101.529763,50.2263695 101.577032,50.179 L103.176032,48.936 C103.234032,48.91 103.276032,48.87 103.332032,48.843 C104.359032,48.33 105.122032,47.533 105.468032,46.571 C105.840259,45.5044123 105.695002,44.3253516 105.075032,43.381 C104.649032,42.723 104.010032,42.233 103.270032,41.874 L103.300032,41.843 L103.145032,41.748 L101.556032,40.584 C101.506385,40.5575888 101.454097,40.5364726 101.400032,40.521 C99.9150324,39.833 99.4750324,38.499 100.227032,37.36 C100.500032,36.946 100.942032,36.596 101.481032,36.365 C101.538306,36.3303387 101.591045,36.2886854 101.638032,36.241 L103.238032,35.029 C103.295032,35.003 103.338032,34.964 103.394032,34.936 C104.421032,34.424 105.184032,33.627 105.529032,32.665 C105.901553,31.5985655 105.756667,30.4195146 105.137032,29.475 C104.710032,28.816 104.072032,28.327 103.331032,27.967 L103.362032,27.937 L103.207032,27.841 L101.618032,26.678 C101.56819,26.6520096 101.515946,26.630911 101.462032,26.615 C99.9760324,25.927 99.5360324,24.593 100.289032,23.453 C100.537032,23.076 100.859032,22.738 101.136032,22.613 C101.299032,22.541 101.272032,22.536 101.293032,22.521 L101.355032,22.49 C101.389032,22.464 101.405032,22.432 101.449032,22.396 C101.538032,22.325 101.682032,22.235 101.826032,22.116 C102.113032,21.879 102.478032,21.556 102.923032,21.183 C103.815032,20.438 104.527032,20.021 105.441032,19.256 C105.505576,13.4238347 105.681608,7.5934361 105.969032,1.768 C60.5000324,13.402 19.0590324,6.338 0.872032435,2.27373675e-13 C-0.894967565,2.51 0.610032435,6.23 0.374032435,9.122 C1.01803244,9.985 1.68603244,10.827 2.21403244,11.737 C3.12103244,12.511 4.22503244,13.466 5.11003244,14.219 L6.20003244,15.161 C6.34203244,15.281 6.48503244,15.372 6.57303244,15.444 C6.61703244,15.48 6.63303244,15.512 6.66603244,15.538 L6.72903244,15.569 C6.74903244,15.584 6.72303244,15.589 6.88503244,15.664 C7.16103244,15.791 7.47903244,16.132 7.72503244,16.511 C8.46703244,17.658 8.01503244,18.987 6.52303244,19.662 C6.46919151,19.6772685 6.41694944,19.6976965 6.36703244,19.723 L4.76703244,20.873 L4.61103244,20.966 L4.64203244,20.996 C3.89803244,21.35 3.25503244,21.834 2.82303244,22.489 C2.19558724,23.4276735 2.04036672,24.6047624 2.40303244,25.674 C2.73903244,26.64 3.49503244,27.444 4.51803244,27.965 C4.57403244,27.993 4.61603244,28.033 4.67303244,28.06 L6.26203244,29.286 C6.30803244,29.334 6.36103244,29.376 6.41703244,29.411 C6.95503244,29.647 7.39403244,30.001 7.66303244,30.417 C8.40503244,31.563 7.95303244,32.893 6.46203244,33.568 C6.40784935,33.5832076 6.35526967,33.6036367 6.30503244,33.629 L4.70603244,34.779 L4.55003244,34.871 L4.58003244,34.902 C3.83703244,35.255 3.19403244,35.739 2.76103244,36.394 C2.13326664,37.3329265 1.97803565,38.5104645 2.34103244,39.58 C2.67803244,40.546 3.43403244,41.349 4.45603244,41.87 C4.51203244,41.898 4.55403244,41.937 4.61203244,41.965 L6.20003244,43.222 C6.24656333,43.2703534 6.29897188,43.3126834 6.35603244,43.348 C6.89303244,43.584 7.33203244,43.938 7.60103244,44.354 C8.34303244,45.5 7.89103244,46.829 6.40003244,47.504 C6.3456615,47.5190794 6.29303603,47.5398614 6.24303244,47.566 L4.64403244,48.715 L4.48803244,48.808 L4.51803244,48.838 C3.77503244,49.192 3.13203244,49.676 2.70003244,50.331 C2.07258724,51.2696735 1.91736672,52.4467624 2.28003244,53.516 C2.61603244,54.482 3.37203244,55.286 4.39403244,55.807 C4.45003244,55.835 4.49203244,55.874 4.55003244,55.902 L6.13803244,57.128 C6.18503244,57.176 6.23803244,57.218 6.29403244,57.254 C6.83103244,57.489 7.27003244,57.843 7.54003244,58.259 C8.28203244,59.405 7.83003244,60.735 6.33803244,61.409 L6.18203244,61.471 L4.58203244,62.621 L4.42603244,62.713 L4.45703244,62.744 C3.71303244,63.097 3.07103244,63.581 2.63803244,64.236 C2.01003244,65.187 1.86603244,66.335 2.18703244,67.328 C2.49703244,68.288 3.22203244,69.11 4.20803244,69.649 L4.30103244,69.711 C4.30703244,69.721 4.29403244,69.737 4.30103244,69.742 C4.38303244,69.806 4.49703244,69.876 4.64403244,69.994 C4.93803244,70.231 5.35203244,70.584 5.79603244,70.968 C6.65103244,71.706 7.63003244,72.633 8.25403244,73.385 C8.2472985,73.4894071 8.23628927,73.5934944 8.22103244,73.697 C8.17003244,74.071 8.06903244,74.66 8.33903244,75.292 C8.51903244,75.712 8.77103244,75.892 9.08503244,76.202 C9.39903244,76.512 9.78803244,76.859 10.2370324,77.237 C11.1350324,77.994 12.2600324,78.877 13.3510324,79.751 C14.4420324,80.626 15.5010324,81.507 16.2460324,82.201 L28.6420324,92.284 C45.4390324,93.558 62.2400324,93.741 79.0490324,92.19 L79.0490324,92.196 Z" id="path-14"></path>
        <radialGradient cx="44.618366%" cy="-26.9683976%" fx="44.618366%" fy="-26.9683976%" r="412.105495%" gradientTransform="translate(0.446184,-0.269684),scale(0.182567,1.000000),rotate(-1.598829),translate(-0.446184,0.269684)" id="radialGradient-16">
            <stop stop-color="#6B6B6B" offset="0%"></stop>
            <stop stop-color="#393B3A" offset="70.1%"></stop>
            <stop stop-color="#A4A4A2" offset="84.7%"></stop>
            <stop stop-color="#FFFFFF" offset="97.5%"></stop>
            <stop stop-color="#797A78" offset="100%"></stop>
        </radialGradient>
        <radialGradient cx="42.7490591%" cy="-15.4756097%" fx="42.7490591%" fy="-15.4756097%" r="407.335898%" gradientTransform="translate(0.427491,-0.154756),scale(0.164664,1.000000),rotate(-0.963086),translate(-0.427491,0.154756)" id="radialGradient-17">
            <stop stop-color="#6B6B6B" offset="0%"></stop>
            <stop stop-color="#FFFFFF" offset="79.1%"></stop>
            <stop stop-color="#A4A4A2" offset="87.5%"></stop>
            <stop stop-color="#525453" offset="95.3%"></stop>
            <stop stop-color="#363837" offset="100%"></stop>
        </radialGradient>
        <radialGradient cx="43.3859307%" cy="-24.6539641%" fx="43.3859307%" fy="-24.6539641%" r="404.593462%" gradientTransform="translate(0.433859,-0.246540),scale(0.180820,1.000000),rotate(-1.598829),translate(-0.433859,0.246540)" id="radialGradient-18">
            <stop stop-color="#6B6B6B" offset="0%"></stop>
            <stop stop-color="#393B3A" offset="70.1%"></stop>
            <stop stop-color="#A4A4A2" offset="84.7%"></stop>
            <stop stop-color="#FFFFFF" offset="97.5%"></stop>
            <stop stop-color="#797A78" offset="100%"></stop>
        </radialGradient>
        <radialGradient cx="43.2552555%" cy="-1.93782881%" fx="43.2552555%" fy="-1.93782881%" r="359.342934%" gradientTransform="translate(0.432553,-0.019378),scale(0.185006,1.000000),rotate(-0.963071),translate(-0.432553,0.019378)" id="radialGradient-19">
            <stop stop-color="#6B6B6B" offset="0%"></stop>
            <stop stop-color="#FFFFFF" offset="79.1%"></stop>
            <stop stop-color="#A4A4A2" offset="87.5%"></stop>
            <stop stop-color="#525453" offset="95.3%"></stop>
            <stop stop-color="#363837" offset="100%"></stop>
        </radialGradient>
        <linearGradient x1="-1.64289583%" y1="-21423.058%" x2="101.685021%" y2="-21423.058%" id="linearGradient-20">
            <stop stop-color="#6B6B6B" offset="0%"></stop>
            <stop stop-color="#FFFFFF" offset="79.1%"></stop>
            <stop stop-color="#A4A4A2" offset="87.5%"></stop>
            <stop stop-color="#525453" offset="95.3%"></stop>
            <stop stop-color="#363837" offset="100%"></stop>
        </linearGradient>
    </defs>
    <g id="Page-1" stroke="none" stroke-width="1" fill="none" fill-rule="evenodd">
        <g id="translucent-light-bulbs" transform="translate(0.354865, 0.498446)">
            <path d="M160.686895,0.0194101231 C139.186044,0.371103123 117.514147,6.25202172 97.972361,14.8323115 C75.348553,24.7663645 54.4947034,39.8901829 38.2782298,58.2200143 C23.2293338,75.2307421 11.216777,95.8114087 5.5095642,117.600064 C-1.8273702,145.614196 -1.643575,176.159497 4.9124954,204.376489 C12.4311002,236.740401 35.1653978,263.843188 49.5332954,293.924663 C56.2901594,308.070877 64.5960026,321.698216 69.0878298,336.675241 C124.297571,379.241307 240.676054,380.37488 265.961174,320.014167 C275.388911,296.13778 292.740028,275.933272 303.510639,252.606342 C313.418582,231.147972 325.07311,209.561158 328.243311,186.217917 C331.667427,161.022427 331.254153,133.875805 321.637308,110.241016 C308.506044,77.9678311 284.29926,48.6723139 255.237308,28.6574143 C230.660809,11.7323161 199.875644,2.02253112 169.879843,0.210037923 C166.81835,0.0286180054 163.750523,-0.035315423 160.683708,0.0183907231 L160.686895,0.0194101231 Z M161.716361,42.8984323 C164.021769,42.8607145 166.327177,42.9188203 168.621961,43.0574587 C191.143779,44.4193771 214.244604,51.6938155 232.69743,64.4016559 C254.519126,79.4296507 272.671292,101.428303 282.530364,125.66148 C289.750435,143.407195 290.080841,163.829854 287.509833,182.74788 C285.127932,200.275443 276.390755,216.459438 268.950767,232.571055 C260.863779,250.086385 247.81007,265.263213 240.731299,283.190381 C236.348899,294.289608 234.778671,306.267558 232.133295,317.881582 C230.290031,325.971541 230.412207,334.630324 227.086895,342.251359 C225.157577,346.669438 222.681123,351.301592 218.686499,354.101884 C212.552201,358.403752 204.346223,358.931801 196.907299,360.218284 C189.321763,361.530252 181.530121,361.443603 173.833033,361.811606 C162.170006,362.368198 150.390115,364.199041 138.806767,362.735182 C128.95407,361.489476 117.936982,360.669878 110.221833,354.548381 C103.963235,349.581864 101.342294,341.188125 98.801033,333.713884 C94.6640474,321.545306 96.6146138,308.01379 92.9248986,295.709632 C89.5517786,284.463612 83.3239898,274.219661 78.2510298,263.598532 C67.4623578,241.011687 50.3651546,220.681792 44.719561,196.381335 C39.7974618,175.195145 39.6752858,152.237238 45.1848922,131.203957 C49.4695514,114.842587 58.4861402,99.4088713 69.7847642,86.6357893 C81.9598682,72.8738893 97.6175194,61.5065599 114.605295,54.0476101 C129.279164,47.6050021 145.572131,43.1604181 161.716361,42.8984323 L161.716361,42.8984323 Z" id="Shape" fill-opacity="0.984" fill="#FEFEFF" fill-rule="nonzero"></path>
            <path d="M216.948394,353.418252 C216.948394,357.811771 193.28287,361.374858 164.089029,361.374858 C134.895188,361.374858 111.236025,357.811771 111.236025,353.418252 C111.236025,349.024733 134.901549,345.461646 164.095391,345.461646 C193.289232,345.461646 216.948394,349.024733 216.948394,353.418252 Z" id="Path" stroke="url(#linearGradient-1)" stroke-width="2.61775664" fill="#FFFFFF" fill-rule="nonzero"></path>
            <path d="M147.119135,277.945554 C150.790135,275.949554 155.029135,275.011554 159.178135,274.517554 C163.361135,274.019554 167.694135,274.105554 171.805135,275.022554 C175.825135,275.918554 180.325135,276.862554 183.191135,279.820554 C183.768135,280.415554 183.953135,281.323554 184.084135,282.141554 C184.997135,287.873554 183.711135,293.751554 183.191135,299.531554 C182.748135,304.455554 181.196135,309.299554 181.297135,314.241554 C181.374135,317.998554 182.874135,321.609554 183.191135,325.353554 C184.501135,340.834554 183.191135,371.963554 183.191135,371.963554 L144.977135,371.963554 C144.996135,358.046554 143.588135,340.821554 145.037135,325.353554 C145.389135,321.601554 147.047135,318.009554 147.124135,314.241554 C147.224135,309.287554 145.336135,304.473554 144.977135,299.531554 C144.501135,292.978554 142.262135,285.803554 144.977135,279.821554 C145.369135,278.956554 146.286135,278.399554 147.120135,277.945554 L147.119135,277.945554 Z" id="Path" fill="url(#linearGradient-2)" fill-rule="nonzero" opacity="0.7"></path>
            <path d="M163.685135,299.692892 C167.052135,299.713454 170.408135,300.790903 173.774135,300.702486 C176.176135,300.6408 179.220135,296.199408 180.962135,299.600363 C182.828135,303.248062 180.762135,310.185681 180.782135,315.480396 C180.801135,320.197319 182.624135,326.184973 181.051135,329.616771 C177.049135,338.349452 169.384135,330.583185 163.551135,330.35289 C158.231135,330.141102 151.315135,336.287084 147.614135,328.424175 C146.040135,325.080794 147.566135,319.115757 147.435135,314.472858 C147.310135,310.025297 145.427135,304.510569 146.855135,301.161019 C148.259135,297.869043 151.111135,300.797072 153.239135,300.609957 C156.721135,300.307696 160.200135,299.67233 163.685135,299.692892 L163.685135,299.692892 Z" id="Path" fill="url(#linearGradient-3)" fill-rule="nonzero"></path>
            <polyline id="Path" fill="url(#linearGradient-4)" fill-rule="nonzero" opacity="0.7" points="157.243135 320.905554 170.814135 320.905554 170.814135 381.976554 157.243135 381.976554 157.243135 320.905554"></polyline>
            <path d="M173.406635,321.546549 C173.406635,324.234398 169.208735,326.412547 164.031185,326.412547 C158.853635,326.412547 154.656785,324.233779 154.656785,321.546549 C154.656785,318.85932 158.853635,316.680552 164.031185,316.680552 C169.208735,316.680552 173.406635,318.85932 173.406635,321.546549 Z" id="Path" fill="url(#radialGradient-5)" fill-rule="nonzero" opacity="0.5"></path>
            <path d="M183.448235,281.081042 C183.448235,284.816914 174.772575,287.844348 164.072305,287.844348 C153.372035,287.844348 144.698545,284.816053 144.698545,281.081042 C144.698545,277.346031 153.372035,274.317737 164.072305,274.317737 C174.772575,274.317737 183.448235,277.346031 183.448235,281.081042 Z" id="Path" fill="url(#radialGradient-6)" fill-rule="nonzero" opacity="0.5"></path>
            <polyline id="Path" fill="url(#linearGradient-7)" fill-rule="nonzero" opacity="0.7" points="157.243135 213.635554 170.814135 213.635554 170.814135 280.063554 157.243135 280.063554 157.243135 213.635554"></polyline>
            <path d="M174.113323,217.250458 C174.113323,219.198684 169.589187,220.777465 164.009267,220.777465 C158.429347,220.777465 153.906342,219.198235 153.906342,217.250458 C153.906342,215.302681 158.429347,213.723451 164.009267,213.723451 C169.589187,213.723451 174.113323,215.302681 174.113323,217.250458 Z" id="Path" fill="url(#radialGradient-8)" fill-rule="nonzero"></path>
            <path d="M174.113323,216.360458 C174.113323,218.308684 169.589187,219.887465 164.009267,219.887465 C158.429347,219.887465 153.906342,218.308235 153.906342,216.360458 C153.906342,214.412681 158.429347,212.833451 164.009267,212.833451 C169.589187,212.833451 174.113323,214.412681 174.113323,216.360458 Z" id="Path" fill="url(#radialGradient-8)" fill-rule="nonzero"></path>
            <path d="M148.375135,375.612554 C149.061135,355.920554 149.714135,336.226554 150.333135,316.531554 C150.753135,303.192554 151.148135,289.723554 148.628135,276.617554 C146.738135,266.792554 143.244135,257.358554 139.660135,248.017554 C131.921538,227.852512 123.691415,207.879553 114.977135,188.116554 L115.890135,187.999554 L121.578135,200.522554 M179.365135,375.612554 C178.679135,355.920554 178.026135,336.226554 177.407135,316.531554 C176.987135,303.192554 176.592135,289.723554 179.112135,276.617554 C181.002135,266.792554 184.496135,257.358554 188.081135,248.017554 C195.819733,227.852512 204.049855,207.879553 212.764135,188.116554 L211.850135,187.999554 L206.162135,200.522554" id="Shape" stroke="#394D5A" stroke-linecap="round" stroke-linejoin="round"></path>
            <g id="Group" transform="translate(134.699489, 170.005582)" stroke="#394D5A" stroke-width="0.5">
                <path d="M0,0 C0.80074644,2.305176 1.70631162,4.577184 2.71239969,6.8052444 C3.21673248,7.9246644 3.76660128,9.0598392 4.67560314,9.9081108 C5.1292449,10.3326612 5.670522,10.6776084 6.271941,10.8650076 C6.87336,11.0524068 7.53578007,11.0789412 8.1363399,10.8890544 C8.7463506,10.69668 9.2704443,10.2895428 9.63902823,9.7829016 C10.0076122,9.2762604 10.2215455,8.6750904 10.3066033,8.0623116 C10.4492255,7.0307868 10.2069396,5.9254632 9.51616692,5.1269436 C9.16992141,4.7289276 8.71713882,4.4130024 8.20851018,4.2405288 C7.69988154,4.0680552 7.13540685,4.0431792 6.61732734,4.1882892 C6.2203908,4.299402 5.85524355,4.5075312 5.5502382,4.7770212 C5.24523285,5.0465112 5.00122857,5.377362 4.81822536,5.7355764 C4.45135977,6.4503468 4.33451265,7.263792 4.33966767,8.0623116 C4.34825937,9.548238 4.76409765,11.0101176 5.35950246,12.379956 C5.95490727,13.7497944 6.72644193,15.041688 7.48508904,16.3335816 C10.3340968,21.1844016 13.0232989,26.1222876 15.838799,30.9921792 C18.8100868,36.1313871 21.921365,41.1940329 25.1693852,46.1748312 M58.1486256,0 C57.3478792,2.305176 56.442314,4.577184 55.4362259,6.8052444 C54.9318931,7.9246644 54.3820243,9.0598392 53.4730225,9.9081108 C53.0193807,10.3326612 52.4781036,10.6776084 51.8766846,10.8650076 C51.2752656,11.0524068 50.6128455,11.0789412 50.0122857,10.8890544 C49.402275,10.69668 48.8781813,10.2895428 48.5095974,9.7829016 C48.1410134,9.2762604 47.9270801,8.6750904 47.8420223,8.0623116 C47.6994001,7.0307868 47.941686,5.9254632 48.6324587,5.1269436 C48.9787042,4.7289276 49.4314868,4.4130024 49.9401154,4.2405288 C50.4487441,4.0680552 51.0132187,4.0431792 51.5312983,4.1882892 C51.9282348,4.299402 52.293382,4.5075312 52.5983874,4.7770212 C52.9033927,5.0465112 53.147397,5.377362 53.3304002,5.7347472 C53.6972658,6.4503468 53.8141129,7.263792 53.8089579,8.0623116 C53.8003662,9.548238 53.3845279,11.0101176 52.7891231,12.379956 C52.1937183,13.7497944 51.4221837,15.041688 50.6626774,16.3335816 C47.8136697,21.1844016 45.1253267,26.1222876 42.3098266,30.9921792 C39.3385256,36.1311076 36.2272475,41.1934768 32.9792404,46.174002" id="Shape"></path>
            </g>
            <polyline id="Path" stroke="#FFFBCC" stroke-width="20" stroke-linecap="round" stroke-linejoin="round" points="114.985135 193.791554 142.485135 176.648554 184.271135 177.005554 213.200135 191.648554"></polyline>
            <path d="M112.845135,354.431554 C106.920135,349.312554 103.823135,341.633554 102.104135,333.994554 C99.3421354,321.721554 99.5951354,308.901554 96.5681354,296.691554 C93.8001354,285.529554 88.3791354,275.226554 82.7541354,265.196554 C70.7981354,243.881554 57.5341354,222.856554 51.2101354,199.249554 C45.6301354,178.419554 45.7681354,156.082554 51.6471354,135.335554 C56.1771354,119.344554 64.0891354,104.307554 74.7931354,91.5935541 C86.2471354,77.9905541 100.843135,67.1075541 116.983135,59.6415541 C132.851135,52.3015541 150.350135,48.2265541 167.822135,48.8605541 C189.381135,49.6435541 210.362135,57.6005541 228.148135,69.8105541 C249.453135,84.4375541 266.587135,105.485554 275.054135,129.902554 C281.251135,147.773554 282.750135,167.204554 279.738135,185.878554 C276.970135,203.041554 270.487135,219.444554 262.262135,234.761554 C253.372135,251.318554 242.376135,266.853554 235.714135,284.425554 C231.572135,295.351554 229.187135,306.874554 227.606135,318.452554 C226.505135,326.522554 225.761135,334.750554 222.847135,342.355554 C221.151135,346.782554 218.654135,351.025554 214.939135,353.971554 C212.107135,356.217554 208.679135,357.618554 205.169135,358.476554 C201.659135,359.334554 198.043135,359.673554 194.442135,359.977554 C187.214135,360.589554 179.976135,361.074554 172.737135,361.532554 C161.762135,362.228554 150.763135,362.864554 139.774135,362.452554 C135.000135,362.272554 130.207135,361.890554 125.576135,360.718554 C120.945135,359.546554 116.458135,357.551554 112.844135,354.428554" id="Path" fill="#D6E7F7" fill-rule="nonzero" opacity="0.367"></path>
            <path d="M242.170335,167.79173 C242.170335,210.991437 207.150843,246.01093 163.951135,246.01093 C120.751428,246.01093 85.7319354,210.991437 85.7319354,167.79173 C85.7319354,124.592023 120.751428,89.5725301 163.951135,89.5725301 C207.150843,89.5725301 242.170335,124.592023 242.170335,167.79173 Z" id="Path" fill-opacity="0.973" fill="#FFFFFF" fill-rule="nonzero"></path>
            <g id="Group" transform="translate(136.455135, 442.443554)">
                <path d="M49.1421428,13.302129 C49.1421428,14.868173 40.7324236,16.137046 30.3597283,16.137046 C19.987033,16.137046 11.5773139,14.868173 11.5773139,13.302129 C11.5773139,11.736085 19.987033,10.467212 30.3597283,10.467212 C40.7324236,10.467212 49.1421428,11.736085 49.1421428,13.302129 Z" id="Path" stroke="url(#linearGradient-9)" stroke-width="2.19556327"></path>
                <path d="M0,-5.68434189e-14 L0.375,0.53 L6.406,6.156 C7.789,7.598 9.077,9.23 10.344,10.906 C10.894,11.635 11.436,12.132 11.624,12.625 C11.5483672,12.7238556 11.5050656,12.8436332 11.5,12.968 C11.5,13.142 11.614,13.303 11.812,13.468 C13.402,14.791 21.06,15.781 30.282,15.781 C40.654,15.781 49.062,14.534 49.062,12.968 C49.062,12.827 48.976,12.667 48.844,12.531 C48.848,12.384 48.871,11.891 49.469,10.968 C50.144,9.924 51.249,8.343 51.249,8.343 C51.167,7.928 54.589,4.892 55.062,4.281 L56.453,3.236 L0,-5.68434189e-14 L0,-5.68434189e-14 Z" id="Path" fill="#212322" fill-rule="nonzero"></path>
                <path d="M1.13686838e-13,0 L0.375,0.53 L6.406,6.156 C7.789,7.598 9.077,9.23 10.344,10.906 C10.894,11.635 11.436,12.132 11.624,12.625 C11.5483672,12.7238556 11.5050656,12.8436332 11.5,12.968 C11.5,13.142 11.614,13.303 11.812,13.468 C13.402,14.791 21.06,15.781 30.282,15.781 C40.654,15.781 49.062,14.534 49.062,12.968 C49.062,12.827 48.976,12.667 48.844,12.531 C48.848,12.384 48.871,11.891 49.469,10.968 C50.144,9.924 51.249,8.343 51.249,8.343 C51.167,7.928 54.589,4.892 55.062,4.281 L56.453,3.236 L1.13686838e-13,0 L1.13686838e-13,0 Z" id="Path" fill="url(#linearGradient-10)" fill-rule="nonzero"></path>
            </g>
            <g id="Group" transform="translate(111.130384, 354.481554)">
                <path d="M79.4417516,91.847 C87.5997516,85.312 95.7577516,78.777 102.074752,70.632 C103.174752,68.927 101.884752,67.403 101.829752,67.388 C100.340752,66.706 99.6297516,65.905 100.377752,64.762 C100.647752,64.347 101.088752,63.995 101.627752,63.762 C101.684666,63.7268678 101.737058,63.6848877 101.783752,63.637 L103.377752,62.418 C103.434752,62.392 103.477752,62.353 103.533752,62.324 C104.557752,61.807 105.317752,61.007 105.658752,60.043 C106.026505,58.9750142 105.876446,57.7967223 105.252752,56.855 C104.822752,56.198 104.182752,55.712 103.439752,55.355 L103.470752,55.325 L103.314752,55.23 L101.720752,54.074 C101.671064,54.0479331 101.618777,54.0271526 101.564752,54.012 C100.075752,53.33 99.6297516,51.999 100.377752,50.856 C100.647752,50.441 101.088752,50.089 101.627752,49.856 C101.684666,49.8208678 101.737058,49.7788877 101.783752,49.731 L103.377752,48.481 C103.434752,48.455 103.477752,48.416 103.533752,48.387 C104.557752,47.87 105.317752,47.07 105.658752,46.106 C106.026505,45.0380142 105.876446,43.8597223 105.252752,42.918 C104.822752,42.261 104.182752,41.774 103.439752,41.418 L103.470752,41.387 L103.314752,41.293 L101.720752,40.137 C101.671064,40.1109331 101.618777,40.0901526 101.564752,40.075 C100.075752,39.393 99.6297516,38.061 100.376752,36.919 C100.648752,36.504 101.088752,36.152 101.626752,35.919 C101.684073,35.8836243 101.736806,35.8413039 101.783752,35.793 L103.376752,34.575 C103.434752,34.549 103.476752,34.51 103.533752,34.481 C104.557752,33.964 105.317752,33.164 105.658752,32.2 C106.026212,31.131861 105.875783,29.953559 105.251752,29.012 C104.822752,28.355 104.181752,27.868 103.439752,27.512 L103.470752,27.481 L103.314752,27.387 L101.720752,26.231 C101.671064,26.2049331 101.618777,26.1841526 101.564752,26.169 C100.075752,25.487 99.6297516,24.155 100.377752,23.012 C100.624752,22.634 100.943752,22.295 101.220752,22.169 C101.383752,22.095 101.355752,22.089 101.377752,22.075 L101.439752,22.044 C101.472752,22.018 101.489752,21.986 101.533752,21.95 C101.621752,21.879 101.765752,21.788 101.908752,21.668 C102.194752,21.43 102.558752,21.106 103.001752,20.731 C103.889752,19.982 104.600752,19.562 105.510752,18.793 C105.535752,13.54 105.705752,6.855 105.961752,1.303 C60.5447516,13.138 19.0717516,6.257 0.857751635,5.68434189e-14 C-0.898248365,2.518 0.622751635,6.23 0.400751635,9.124 C1.04775164,9.984 1.72075164,10.823 2.25275164,11.731 C3.16275164,12.501 4.27075164,13.451 5.15875164,14.2 C5.60275164,14.574 5.96575164,14.899 6.25275164,15.137 C6.39575164,15.257 6.53975164,15.347 6.62775164,15.418 C6.67075164,15.454 6.68775164,15.486 6.72075164,15.512 L6.78375164,15.543 C6.80375164,15.558 6.77775164,15.563 6.93975164,15.637 C7.21675164,15.763 7.53675164,16.103 7.78375164,16.481 C8.53075164,17.624 8.08475164,18.956 6.59575164,19.637 C6.54172595,19.6521526 6.48943961,19.6729331 6.43975164,19.699 L4.84575164,20.856 L4.68975164,20.95 L4.72075164,20.98 C3.97875164,21.337 3.33775164,21.824 2.90875164,22.48 C2.28472063,23.421559 2.13429123,24.599861 2.50175164,25.668 C2.84275164,26.633 3.60175164,27.432 4.62675164,27.949 C4.68375164,27.977 4.72575164,28.016 4.78375164,28.043 L6.37675164,29.263 C6.42375164,29.31 6.47675164,29.353 6.53375164,29.387 C7.07175164,29.621 7.51275164,29.972 7.78375164,30.387 C8.53075164,31.53 8.08475164,32.862 6.59575164,33.543 L6.43975164,33.605 L4.84575164,34.762 L4.68975164,34.856 L4.72075164,34.886 C3.97875164,35.243 3.33775164,35.73 2.90875164,36.386 C2.28472063,37.327559 2.13429123,38.505861 2.50175164,39.574 C2.84275164,40.538 3.60175164,41.338 4.62675164,41.855 C4.68375164,41.883 4.72575164,41.922 4.78375164,41.949 L6.37675164,43.199 C6.42375164,43.247 6.47675164,43.289 6.53375164,43.324 C7.07175164,43.558 7.51175164,43.91 7.78375164,44.324 C8.53075164,45.467 8.08375164,46.799 6.59575164,47.481 L6.43975164,47.543 L4.84575164,48.699 L4.68975164,48.793 L4.72075164,48.823 C3.97875164,49.18 3.33775164,49.667 2.90875164,50.323 C2.28472063,51.264559 2.13429123,52.442861 2.50175164,53.511 C2.84275164,54.476 3.60175164,55.276 4.62675164,55.793 C4.68275164,55.821 4.72575164,55.86 4.78375164,55.887 L6.37675164,57.105 C6.42375164,57.153 6.47675164,57.195 6.53375164,57.23 C7.07175164,57.464 7.51175164,57.816 7.78375164,58.23 C8.53075164,59.373 8.08375164,60.705 6.59575164,61.387 C6.54172595,61.4021526 6.48943961,61.4229331 6.43975164,61.449 L4.84575164,62.605 L4.68975164,62.699 L4.72075164,62.729 C3.97875164,63.086 3.33775164,63.573 2.90875164,64.229 C2.28475164,65.184 2.14575164,66.332 2.47075164,67.324 C2.78575164,68.282 3.51375164,69.101 4.50175164,69.636 L4.59575164,69.698 C4.60175164,69.698 4.58875164,69.724 4.59575164,69.729 C4.67775164,69.793 4.79175164,69.861 4.93975164,69.979 C5.23475164,70.215 5.64975164,70.566 6.09575164,70.948 C6.95475164,71.683 7.93775164,72.605 8.56475164,73.354 C8.56075164,73.42 8.55475164,73.511 8.53375164,73.667 C8.48375164,74.04 8.38475164,74.63 8.65875164,75.26 C8.83975164,75.68 9.09275164,75.859 9.40875164,76.167 C9.72475164,76.475 10.1137516,76.822 10.5647516,77.197 C11.4647516,77.95 12.5947516,78.827 13.6897516,79.697 C14.7847516,80.567 15.8467516,81.444 16.5957516,82.135 L29.0357516,92.163 C45.8377516,93.363 62.6397516,93.471 79.4417516,91.846 L79.4417516,91.847 Z" id="Path" fill="url(#linearGradient-11)" fill-rule="nonzero"></path>
                <path d="M80.7047516,91.846 C88.8627516,85.312 97.0207516,78.777 103.337752,70.632 C104.437752,68.927 103.147752,67.403 103.092752,67.388 C54.5327516,68.086 -8.53724836,31.961 3.73375164,67.324 C4.04875164,68.282 4.77775164,69.101 5.76475164,69.636 L5.85875164,69.698 C5.86475164,69.698 5.85175164,69.724 5.85875164,69.729 C5.94175164,69.793 6.05475164,69.861 6.20275164,69.979 C6.49775164,70.215 6.91275164,70.566 7.35875164,70.948 C8.21775164,71.683 9.20075164,72.605 9.82775164,73.354 C9.82375164,73.42 9.81775164,73.511 9.79675164,73.667 C9.74675164,74.04 9.64775164,74.63 9.92175164,75.26 C10.1027516,75.68 10.3557516,75.859 10.6717516,76.167 C10.9877516,76.475 11.3767516,76.822 11.8277516,77.197 C12.7287516,77.95 13.8577516,78.827 14.9527516,79.697 C16.0477516,80.567 17.1097516,81.444 17.8587516,82.135 L30.2987516,92.163 C47.1007516,93.363 63.9027516,93.471 80.7047516,91.846 Z" id="Path" fill="url(#linearGradient-12)" fill-rule="nonzero"></path>
                <path d="M79.4877516,91.758 C87.6447516,85.223 95.8027516,78.688 102.119752,70.544 C103.219752,68.838 101.929752,67.314 101.875752,67.299 L2.51575164,67.235 C2.83075164,68.195 3.55975164,69.012 4.54775164,69.548 L4.64075164,69.61 C4.64675164,69.61 4.63375164,69.636 4.64075164,69.64 C4.72375164,69.705 4.83775164,69.773 4.98475164,69.89 C5.27975164,70.126 5.69475164,70.478 6.14075164,70.86 C7.00075164,71.594 7.98275164,72.516 8.61075164,73.266 C8.60575164,73.332 8.59975164,73.422 8.57875164,73.578 C8.52875164,73.952 8.43075164,74.541 8.70375164,75.172 C8.88575164,75.592 9.13875164,75.771 9.45375164,76.078 C9.76875164,76.385 10.1597516,76.733 10.6097516,77.109 C11.5107516,77.862 12.6397516,78.739 13.7347516,79.609 C14.8297516,80.479 15.8927516,81.356 16.6407516,82.047 L29.0807516,92.075 C45.8837516,93.275 62.6857516,93.383 79.4877516,91.757 L79.4877516,91.758 Z" id="Path" fill="url(#linearGradient-13)" fill-rule="nonzero"></path>
                <g id="Clipped" transform="translate(83.559719, 671.914000)">
                    <mask id="mask-15" fill="white">
                        <use xlink:href="#path-14"></use>
                    </mask>
                    <g id="Path"></g>
                    <g id="Group" mask="url(#mask-15)">
                        <g transform="translate(-29.730855, -642.033982) rotate(-0.256000) translate(29.730855, 642.033982) translate(-84.336521, -679.233985)">
                            <path d="M16.2277713,58.4400049 C20.5080954,58.9440049 24.8244153,59.1120049 29.1290895,59.3700049 C33.5015205,59.6320049 37.8739515,60.0260049 42.2548521,60.0000049 C48.0597042,59.9640049 53.8476171,59.3930049 59.6344713,58.9550049 C66.1295958,58.4650049 72.6723618,58.2430049 79.0902012,57.1820049 C83.7537747,56.4120049 88.3601784,55.2740049 92.8501251,53.8580049 C95.6133321,52.9880049 98.8338975,51.9340049 100.918478,50.6900049 C105.142691,48.3600049 101.949652,52.1870049 102.148687,54.6980049 C102.281025,56.3630049 106.9266,56.1360049 104.424892,57.9030049 C103.152335,58.8010049 95.885418,61.8030049 91.3795908,63.1490049 C86.9626944,64.4690049 82.3562907,65.1630049 77.7858828,65.8870049 C71.4918958,66.8772588 65.1557164,67.6112709 58.7949222,68.0870049 C54.0339483,68.4480049 49.2518004,68.5840049 44.4760047,68.6010049 C39.5064669,68.6190049 34.5326943,68.4730049 29.5737435,68.1730049 C23.7720675,67.8230049 17.9280435,67.5980049 12.2184744,66.5680049 C9.41291938,66.0630049 5.87686138,65.1350049 3.98602318,64.3340049 C1.20270088,63.1560049 5.77099138,62.2920049 5.69476498,60.8190049 C5.60159938,59.0220049 1.52242828,56.1640049 4.67206078,56.5470049 C8.27164078,56.9840049 12.3476358,57.9830049 16.2277713,58.4400049 L16.2277713,58.4400049 Z" id="Path" fill="url(#radialGradient-16)" fill-rule="nonzero"></path>
                            <path d="M16.3759893,65.9800049 C25.3770567,66.9390049 34.4310591,67.5750049 43.490355,67.7180049 C56.5885914,67.3980049 68.4936729,66.5220049 80.6570772,64.4540049 C88.2490149,63.0840049 95.9563509,61.4970049 102.722503,57.8280049 C106.946716,55.4980049 109.000594,56.6910049 109.19857,59.2020049 C109.330908,60.8670049 108.446893,62.9170049 105.945185,64.6840049 C97.2680802,67.8240049 88.1187948,70.1300049 78.9769203,71.7750049 C68.0751543,73.3557675 57.0719921,74.2328002 46.0439394,74.4000049 C35.3182497,74.1140049 24.5343315,73.8380049 13.8806334,72.5460049 C10.7479401,72.0990049 6.49937698,71.3810049 4.60853878,70.5800049 C1.82415778,69.4010049 1.05236548,67.8230049 0.977197776,66.3500049 C0.884032176,64.5530049 1.86121228,63.8380049 5.01084478,64.2200049 C8.61042478,64.6580049 12.6959481,65.5450049 16.377048,65.9800049 L16.3759893,65.9800049 Z" id="Path" fill="url(#radialGradient-17)" fill-rule="nonzero"></path>
                            <path d="M16.2277713,45.0100049 C20.5080954,45.5140049 24.8244153,45.6820049 29.1290895,45.9400049 C33.5015205,46.2020049 37.8739515,46.5960049 42.2548521,46.5700049 C48.0597042,46.5340049 53.8476171,45.9630049 59.6344713,45.5250049 C66.1295958,45.0350049 72.6723618,44.8130049 79.0902012,43.7520049 C83.7537747,42.9820049 88.3601784,41.8440049 92.8501251,40.4280049 C95.6133321,39.5580049 98.8338975,38.5040049 100.918478,37.2600049 C105.142691,34.9300049 101.949652,38.7570049 102.148687,41.2680049 C102.281025,42.9330049 106.9266,42.7060049 104.424892,44.4730049 C103.152335,45.3710049 95.885418,48.3730049 91.3795908,49.7190049 C86.9626944,51.0390049 82.3562907,51.7330049 77.7858828,52.4570049 C71.4918958,53.4472588 65.1557164,54.1812709 58.7949222,54.6570049 C54.0339483,55.0180049 49.2518004,55.1540049 44.4760047,55.1710049 C39.5064669,55.1890049 34.5326943,55.0430049 29.5737435,54.7430049 C23.7720675,54.3930049 17.9280435,54.1680049 12.2184744,53.1380049 C9.41291938,52.6330049 5.87686138,51.7050049 3.98602318,50.9040049 C1.20270088,49.7260049 5.77099138,48.8620049 5.69476498,47.3890049 C5.60159938,45.5920049 1.52242828,42.7340049 4.67206078,43.1170049 C8.27164078,43.5540049 12.3476358,44.5530049 16.2277713,45.0100049 L16.2277713,45.0100049 Z" id="Path" fill="url(#radialGradient-16)" fill-rule="nonzero"></path>
                            <path d="M16.3759893,52.5500049 C25.3770567,53.5090049 34.4310591,54.1450049 43.490355,54.2880049 C56.5885914,53.9680049 68.4936729,53.0920049 80.6570772,51.0240049 C88.2490149,49.6540049 95.9563509,48.0670049 102.722503,44.3980049 C106.946716,42.0680049 109.000594,43.2610049 109.19857,45.7720049 C109.330908,47.4370049 108.446893,49.4870049 105.945185,51.2540049 C97.2680802,54.3940049 88.1187948,56.7000049 78.9769203,58.3450049 C68.0751543,59.9257675 57.0719921,60.8028002 46.0439394,60.9700049 C35.3182497,60.6840049 24.5343315,60.4080049 13.8806334,59.1160049 C10.7479401,58.6690049 6.49937698,57.9510049 4.60853878,57.1500049 C1.82415778,55.9710049 1.05236548,54.3930049 0.977197776,52.9200049 C0.884032176,51.1230049 1.86121228,50.4080049 5.01084478,50.7900049 C8.61042478,51.2280049 12.6959481,52.1150049 16.377048,52.5500049 L16.3759893,52.5500049 Z" id="Path" fill="url(#radialGradient-17)" fill-rule="nonzero"></path>
                            <path d="M16.2277713,31.4100049 C20.5080954,31.9140049 24.8244153,32.0820049 29.1290895,32.3400049 C33.5015205,32.6020049 37.8739515,32.9960049 42.2548521,32.9700049 C48.0597042,32.9340049 53.8476171,32.3630049 59.6344713,31.9250049 C66.1295958,31.4350049 72.6723618,31.2130049 79.0902012,30.1520049 C83.7537747,29.3820049 88.3601784,28.2440049 92.8501251,26.8280049 C95.6133321,25.9580049 98.8338975,24.9040049 100.918478,23.6600049 C105.142691,21.3300049 101.949652,25.1570049 102.148687,27.6680049 C102.281025,29.3330049 106.9266,29.1060049 104.424892,30.8730049 C103.152335,31.7710049 95.885418,34.7730049 91.3795908,36.1190049 C86.9626944,37.4390049 82.3562907,38.1330049 77.7858828,38.8570049 C71.4918958,39.8472588 65.1557164,40.5812709 58.7949222,41.0570049 C54.0339483,41.4180049 49.2518004,41.5540049 44.4760047,41.5710049 C39.5064669,41.5890049 34.5326943,41.4430049 29.5737435,41.1430049 C23.7720675,40.7930049 17.9280435,40.5680049 12.2184744,39.5380049 C9.41291938,39.0330049 5.87686138,38.1050049 3.98602318,37.3040049 C1.20270088,36.1260049 5.77099138,35.2620049 5.69476498,33.7890049 C5.60159938,31.9920049 1.52242828,29.1340049 4.67206078,29.5170049 C8.27164078,29.9540049 12.3476358,30.9530049 16.2277713,31.4100049 L16.2277713,31.4100049 Z" id="Path" fill="url(#radialGradient-16)" fill-rule="nonzero"></path>
                            <path d="M16.3759893,38.9500049 C25.3770567,39.9090049 34.4310591,40.5450049 43.490355,40.6880049 C56.5885914,40.3680049 68.4936729,39.4920049 80.6570772,37.4240049 C88.2490149,36.0540049 95.9563509,34.4670049 102.722503,30.7980049 C106.946716,28.4680049 109.000594,29.6610049 109.19857,32.1720049 C109.330908,33.8370049 108.446893,35.8870049 105.945185,37.6540049 C97.2680802,40.7940049 88.1187948,43.1000049 78.9769203,44.7450049 C68.0751543,46.3257675 57.0719921,47.2028002 46.0439394,47.3700049 C35.3182497,47.0840049 24.5343315,46.8080049 13.8806334,45.5160049 C10.7479401,45.0690049 6.49937698,44.3510049 4.60853878,43.5500049 C1.82415778,42.3710049 1.05236548,40.7930049 0.977197776,39.3200049 C0.884032176,37.5230049 1.86121228,36.8080049 5.01084478,37.1900049 C8.61042478,37.6280049 12.6959481,38.5150049 16.377048,38.9500049 L16.3759893,38.9500049 Z" id="Path" fill="url(#radialGradient-17)" fill-rule="nonzero"></path>
                            <g id="Group" stroke-width="1" fill="none" fill-rule="evenodd" transform="translate(0.971204, 9.000568)">
                                <path d="M15.2565676,8.81943674 C19.5368917,9.32343674 23.8532116,9.49143674 28.1578858,9.74943674 C32.5303168,10.0114367 36.9027478,10.4054367 41.2836484,10.3794367 C47.0885005,10.3434367 52.8764134,9.77243674 58.6632676,9.33443674 C65.1583921,8.84443674 71.7011581,8.62243674 78.1189975,7.56143674 C82.782571,6.79143674 87.3889747,5.65343674 91.8789214,4.23743674 C94.6421284,3.36743674 97.8626938,2.31343674 99.9472741,1.06943674 C103.610376,-0.95056326 106.835176,0.14643674 107.091842,2.24043674 C107.130554,2.56143674 104.656372,3.38343674 104.683898,3.71743674 C104.815177,5.38243674 105.955397,6.51443674 103.453688,8.28243674 C102.181131,9.18043674 94.9142143,12.1824367 90.4083871,13.5284367 C85.9914907,14.8484367 81.385087,15.5424367 76.8146791,16.2664367 C70.5206921,17.2566907 64.1845128,17.9907028 57.8237185,18.4664367 C53.0627446,18.8274367 48.2805967,18.9634367 43.504801,18.9804367 C38.5352632,18.9984367 33.5614906,18.8524367 28.6025398,18.5524367 C22.8008638,18.2024367 16.9568398,17.9774367 11.2472707,16.9474367 C8.4417157,16.4424367 4.9056577,15.5144367 3.0148195,14.7134367 C0.2314972,13.5354367 4.7997877,12.6714367 4.7235613,11.1984367 C4.6303957,9.40143674 0.5512246,6.54343674 3.7008571,6.92643674 C7.3004371,7.36343674 11.3764321,8.36243674 15.2565676,8.81943674 L15.2565676,8.81943674 Z" id="Path" fill="url(#radialGradient-18)" fill-rule="nonzero"></path>
                                <path d="M15.4047856,16.3594367 C24.405853,17.3184367 33.4598554,17.9544367 42.5191513,18.0974367 C55.6173877,17.7774367 67.5224692,16.9014367 79.6858735,14.8334367 C87.2778112,13.4634367 94.9851472,11.8764367 101.751299,8.20743674 C105.975512,5.87743674 108.02939,7.07043674 108.227367,9.58143674 C108.359704,11.2464367 107.47569,13.2964367 104.973982,15.0634367 C96.2968765,18.2034367 87.1475911,20.5094367 78.0057166,22.1544367 C67.1039506,23.7351993 56.1007884,24.612232 45.0727357,24.7794367 C34.347046,24.4934367 23.5631278,24.2174367 12.9094297,22.9254367 C9.7767364,22.4784367 5.5281733,21.7604367 3.6373351,20.9594367 C0.8529541,19.7804367 0.0811618,18.2024367 0.0059941,16.7294367 C-0.0871715,14.9324367 0.8900086,14.2174367 4.0396411,14.5994367 C7.6392211,15.0374367 11.7247444,15.9244367 15.4058443,16.3594367 L15.4047856,16.3594367 Z" id="Path" fill="url(#radialGradient-17)" fill-rule="nonzero"></path>
                            </g>
                            <path d="M15.0327233,4.09000487 C24.0337233,5.04900487 33.7657233,7.68800487 42.8257233,7.83100487 C55.9237233,7.51100487 68.0097233,8.07300487 80.1727233,6.00600487 C87.7647233,4.63600487 95.2137233,4.79700487 102.472723,2.63000487 C106.696723,0.301004873 108.995723,2.49500487 109.194723,5.00600487 C109.326723,6.67100487 108.442723,8.72000487 105.940723,10.4870049 C97.2637233,13.6270049 88.1147233,15.9340049 78.9727233,17.5780049 C68.0628545,19.1597875 57.0623982,20.036938 46.0397233,20.2040049 C35.3137233,19.9180049 24.5297233,19.6410049 13.8767233,18.3500049 C10.7447233,17.9030049 6.49572328,17.1840049 4.60472328,16.3830049 C1.82172328,15.2050049 1.04872328,13.6270049 0.972723276,12.1530049 C0.879723276,10.3570049 -1.53627672,-0.372995127 1.61372328,0.010004873 C5.21372328,0.447004873 11.3507233,3.65600487 15.0327233,4.09000487 L15.0327233,4.09000487 Z" id="Path" fill="url(#radialGradient-19)" fill-rule="nonzero"></path>
                        </g>
                    </g>
                </g>
            </g>
            <path d="M216.948394,353.418252 C216.948394,357.811771 193.28287,361.374858 164.089029,361.374858 C134.895188,361.374858 111.236025,357.811771 111.236025,353.418252 C111.236025,353.305755 111.248749,353.193258 111.280557,353.080761" id="Path" stroke="url(#linearGradient-20)" stroke-width="2.61775664"></path>
        </g>
    </g>
</svg>