<?xml version="1.0" encoding="UTF-8"?>
<svg width="239px" height="437px" viewBox="0 0 239 437" version="1.1" xmlns="http://www.w3.org/2000/svg" xmlns:xlink="http://www.w3.org/1999/xlink">
    <title>Untitled</title>
    <defs>
        <linearGradient x1="-1.64289583%" y1="-11117.9949%" x2="101.685021%" y2="-11117.9949%" id="linearGradient-1">
            <stop stop-color="#6B6B6B" offset="0%"></stop>
            <stop stop-color="#FFFFFF" offset="79.1%"></stop>
            <stop stop-color="#A4A4A2" offset="87.5%"></stop>
            <stop stop-color="#525453" offset="95.3%"></stop>
            <stop stop-color="#363837" offset="100%"></stop>
        </linearGradient>
        <linearGradient x1="3.23613988%" y1="-734.156921%" x2="97.0750857%" y2="-734.156921%" id="linearGradient-2">
            <stop stop-color="#92A8B6" offset="0%"></stop>
            <stop stop-color="#718A9E" offset="13.7%"></stop>
            <stop stop-color="#7D96AA" offset="25%"></stop>
            <stop stop-color="#C3D0D6" offset="44.7%"></stop>
            <stop stop-color="#C1D5DC" offset="61.5%"></stop>
            <stop stop-color="#557284" offset="87%"></stop>
            <stop stop-color="#91AABE" offset="100%"></stop>
        </linearGradient>
        <linearGradient x1="-1399.24128%" y1="-5.9891148%" x2="-1399.24128%" y2="86.3320707%" id="linearGradient-3">
            <stop stop-color="#92A8B6" offset="0%"></stop>
            <stop stop-color="#718A9E" offset="22.6%"></stop>
            <stop stop-color="#7D96AA" offset="35.7%"></stop>
            <stop stop-color="#C3D0D6" offset="53%"></stop>
            <stop stop-color="#C1D5DC" offset="67.1%"></stop>
            <stop stop-color="#557284" offset="91.7%"></stop>
            <stop stop-color="#617D90" offset="100%"></stop>
        </linearGradient>
        <linearGradient x1="0.00736865375%" y1="-1251.51054%" x2="100.007369%" y2="-1251.51054%" id="linearGradient-4">
            <stop stop-color="#92A8B6" offset="0%"></stop>
            <stop stop-color="#718A9E" offset="13.7%"></stop>
            <stop stop-color="#7D96AA" offset="25%"></stop>
            <stop stop-color="#C3D0D6" offset="44.7%"></stop>
            <stop stop-color="#C1D5DC" offset="61.5%"></stop>
            <stop stop-color="#557284" offset="87%"></stop>
            <stop stop-color="#91AABE" offset="100%"></stop>
        </linearGradient>
        <radialGradient cx="49.9915999%" cy="49.9987272%" fx="49.9915999%" fy="49.9987272%" r="96.3363678%" gradientTransform="translate(0.499916,0.499987),scale(0.519044,1.000000),translate(-0.499916,-0.499987)" id="radialGradient-5">
            <stop stop-color="#92A8B6" offset="0%"></stop>
            <stop stop-color="#718A9E" offset="22.6%"></stop>
            <stop stop-color="#7D96AA" offset="35.7%"></stop>
            <stop stop-color="#C3D0D6" offset="53%"></stop>
            <stop stop-color="#C1D5DC" offset="67.1%"></stop>
            <stop stop-color="#557284" offset="91.7%"></stop>
            <stop stop-color="#617D90" offset="100%"></stop>
        </radialGradient>
        <radialGradient cx="49.9915999%" cy="49.9987272%" fx="49.9915999%" fy="49.9987272%" r="143.243047%" gradientTransform="translate(0.499916,0.499987),scale(0.349077,1.000000),translate(-0.499916,-0.499987)" id="radialGradient-6">
            <stop stop-color="#92A8B6" offset="0%"></stop>
            <stop stop-color="#718A9E" offset="22.6%"></stop>
            <stop stop-color="#7D96AA" offset="35.7%"></stop>
            <stop stop-color="#C3D0D6" offset="53%"></stop>
            <stop stop-color="#C1D5DC" offset="67.1%"></stop>
            <stop stop-color="#557284" offset="91.7%"></stop>
            <stop stop-color="#617D90" offset="100%"></stop>
        </radialGradient>
        <linearGradient x1="0.00736865375%" y1="-989.100982%" x2="100.007369%" y2="-989.100982%" id="linearGradient-7">
            <stop stop-color="#92A8B6" offset="0%"></stop>
            <stop stop-color="#718A9E" offset="13.7%"></stop>
            <stop stop-color="#7D96AA" offset="25%"></stop>
            <stop stop-color="#C3D0D6" offset="44.7%"></stop>
            <stop stop-color="#C1D5DC" offset="61.5%"></stop>
            <stop stop-color="#557284" offset="87%"></stop>
            <stop stop-color="#91AABE" offset="100%"></stop>
        </linearGradient>
        <radialGradient cx="49.9915999%" cy="49.9987272%" fx="49.9915999%" fy="49.9987272%" r="143.238382%" gradientTransform="translate(0.499916,0.499987),scale(0.349088,1.000000),translate(-0.499916,-0.499987)" id="radialGradient-8">
            <stop stop-color="#92A8B6" offset="0%"></stop>
            <stop stop-color="#718A9E" offset="22.6%"></stop>
            <stop stop-color="#7D96AA" offset="35.7%"></stop>
            <stop stop-color="#C3D0D6" offset="53%"></stop>
            <stop stop-color="#C1D5DC" offset="67.1%"></stop>
            <stop stop-color="#557284" offset="91.7%"></stop>
            <stop stop-color="#617D90" offset="100%"></stop>
        </radialGradient>
        <linearGradient x1="0.00697533094%" y1="-309.657087%" x2="100.002371%" y2="-309.657087%" id="linearGradient-9">
            <stop stop-color="#B0C9E0" offset="0%"></stop>
            <stop stop-color="#B0C9E0" stop-opacity="0" offset="100%"></stop>
        </linearGradient>
        <linearGradient x1="44.5204407%" y1="22.4498464%" x2="65.9194109%" y2="38.6170724%" id="linearGradient-10">
            <stop stop-color="#FFFFFF" offset="0%"></stop>
            <stop stop-color="#FFFFFF" stop-opacity="0.498" offset="30.5%"></stop>
            <stop stop-color="#FFFFFF" stop-opacity="0" offset="100%"></stop>
        </linearGradient>
        <linearGradient x1="-0.00942818083%" y1="-8172.71215%" x2="100%" y2="-8172.71215%" id="linearGradient-11">
            <stop stop-color="#6B6B6B" offset="0%"></stop>
            <stop stop-color="#6E6E6E" offset="5.4%"></stop>
            <stop stop-color="#F3F3F1" offset="14%"></stop>
            <stop stop-color="#F1F1EF" offset="23.3%"></stop>
            <stop stop-color="#DEDEDC" offset="35.8%"></stop>
            <stop stop-color="#A9ABAA" offset="47.6%"></stop>
            <stop stop-color="#B8B8B6" offset="63.6%"></stop>
            <stop stop-color="#B8B8B6" offset="72.4%"></stop>
            <stop stop-color="#A4A4A2" offset="83.2%"></stop>
            <stop stop-color="#525453" offset="92.8%"></stop>
            <stop stop-color="#363837" offset="100%"></stop>
        </linearGradient>
        <linearGradient x1="-38.8287602%" y1="53.1530396%" x2="76.2049847%" y2="34.9453811%" id="linearGradient-12">
            <stop stop-color="#000000" offset="0%"></stop>
            <stop stop-color="#222423" offset="13.5%"></stop>
            <stop stop-color="#4C4E4D" offset="23%"></stop>
            <stop stop-color="#333534" offset="33.9%"></stop>
            <stop stop-color="#181A19" offset="43%"></stop>
            <stop stop-color="#6E6E6E" stop-opacity="0.478" offset="51.6%"></stop>
            <stop stop-color="#6E6E6E" stop-opacity="0.412" offset="58.3%"></stop>
            <stop stop-color="#6E6E6E" stop-opacity="0.325" offset="66.7%"></stop>
            <stop stop-color="#6E6E6E" stop-opacity="0.243" offset="74.8%"></stop>
            <stop stop-color="#6E6E6E" stop-opacity="0.145" offset="84.9%"></stop>
            <stop stop-color="#6E6E6E" stop-opacity="0.078" offset="91.7%"></stop>
            <stop stop-color="#6E6E6E" stop-opacity="0" offset="100%"></stop>
        </linearGradient>
        <linearGradient x1="0.00448429303%" y1="-1063.28534%" x2="100.002831%" y2="-1063.28534%" id="linearGradient-13">
            <stop stop-color="#6B6B6B" offset="0%"></stop>
            <stop stop-color="#6E6E6E" offset="5.4%"></stop>
            <stop stop-color="#F3F3F1" offset="14%"></stop>
            <stop stop-color="#F1F1EF" offset="23.3%"></stop>
            <stop stop-color="#DEDEDC" offset="35.8%"></stop>
            <stop stop-color="#A9ABAA" offset="47.6%"></stop>
            <stop stop-color="#B8B8B6" offset="63.6%"></stop>
            <stop stop-color="#B8B8B6" offset="72.4%"></stop>
            <stop stop-color="#A4A4A2" offset="83.2%"></stop>
            <stop stop-color="#525453" offset="92.8%"></stop>
            <stop stop-color="#363837" offset="100%"></stop>
        </linearGradient>
        <linearGradient x1="10.2289477%" y1="42.491582%" x2="67.8973958%" y2="63.8912321%" id="linearGradient-14">
            <stop stop-color="#6B6B6B" stop-opacity="0" offset="0%"></stop>
            <stop stop-color="#B8B8B6" stop-opacity="0" offset="72.4%"></stop>
            <stop stop-color="#A4A4A2" offset="83.2%"></stop>
            <stop stop-color="#525453" offset="92.8%"></stop>
            <stop stop-color="#363837" offset="100%"></stop>
        </linearGradient>
        <linearGradient x1="75.8036484%" y1="33.8345253%" x2="0.428800026%" y2="51.0657353%" id="linearGradient-15">
            <stop stop-color="#6B6B6B" stop-opacity="0" offset="0%"></stop>
            <stop stop-color="#B8B8B6" stop-opacity="0" offset="72.4%"></stop>
            <stop stop-color="#A4A4A2" offset="83.2%"></stop>
            <stop stop-color="#525453" offset="92.8%"></stop>
            <stop stop-color="#363837" offset="100%"></stop>
        </linearGradient>
        <linearGradient x1="-1.64289583%" y1="-21423.058%" x2="101.685021%" y2="-21423.058%" id="linearGradient-16">
            <stop stop-color="#6B6B6B" offset="0%"></stop>
            <stop stop-color="#FFFFFF" offset="79.1%"></stop>
            <stop stop-color="#A4A4A2" offset="87.5%"></stop>
            <stop stop-color="#525453" offset="95.3%"></stop>
            <stop stop-color="#363837" offset="100%"></stop>
        </linearGradient>
    </defs>
    <g id="Page-1" stroke="none" stroke-width="1" fill="none" fill-rule="evenodd">
        <g id="Group" transform="translate(0.003670, 0.174533)">
            <path d="M168.699589,304.742165 C168.699589,309.135684 145.034065,312.698771 115.840224,312.698771 C86.6463824,312.698771 62.9872201,309.135684 62.9872201,304.742165 C62.9872201,300.348646 86.6527441,296.785559 115.846585,296.785559 C145.040427,296.785559 168.699589,300.348646 168.699589,304.742165 Z" id="Path" stroke="url(#linearGradient-1)" stroke-width="2.61775664" fill="#404E58" fill-rule="nonzero"></path>
            <path d="M98.41033,230.779467 C102.08133,228.783467 106.32033,227.845467 110.46933,227.351467 C114.65233,226.853467 118.98533,226.939467 123.09633,227.856467 C127.11633,228.752467 131.61633,229.696467 134.48233,232.654467 C135.05933,233.249467 135.24433,234.157467 135.37533,234.975467 C136.28833,240.707467 135.00233,246.585467 134.48233,252.365467 C134.03933,257.289467 132.48733,262.133467 132.58833,267.075467 C132.66533,270.832467 134.16533,274.443467 134.48233,278.187467 C135.79233,293.668467 134.48233,324.797467 134.48233,324.797467 L96.26833,324.797467 C96.28733,310.880467 94.87933,293.655467 96.32833,278.187467 C96.68033,274.435467 98.33833,270.843467 98.41533,267.075467 C98.51533,262.121467 96.62733,257.307467 96.26833,252.365467 C95.79233,245.812467 93.55333,238.637467 96.26833,232.655467 C96.66033,231.790467 97.57733,231.233467 98.41133,230.779467 L98.41033,230.779467 Z" id="Path" fill="url(#linearGradient-2)" fill-rule="nonzero" opacity="0.7"></path>
            <path d="M114.97633,252.526805 C118.34333,252.547367 121.69933,253.624816 125.06533,253.536399 C127.46733,253.474713 130.51133,249.033321 132.25333,252.434276 C134.11933,256.081975 132.05333,263.019593 132.07333,268.314308 C132.09233,273.031231 133.91533,279.018886 132.34233,282.450683 C128.34033,291.183365 120.67533,283.417097 114.84233,283.186803 C109.52233,282.975014 102.60633,289.120996 98.90533,281.258087 C97.33133,277.914706 98.85733,271.94967 98.72633,267.30677 C98.60133,262.85921 96.71833,257.344481 98.14633,253.994932 C99.55033,250.702955 102.40233,253.630984 104.53033,253.44387 C108.01233,253.141609 111.49133,252.506243 114.97633,252.526805 L114.97633,252.526805 Z" id="Path" fill="url(#linearGradient-3)" fill-rule="nonzero"></path>
            <polyline id="Path" fill="url(#linearGradient-4)" fill-rule="nonzero" opacity="0.7" points="108.53433 273.739467 122.10533 273.739467 122.10533 334.810467 108.53433 334.810467 108.53433 273.739467"></polyline>
            <path d="M124.69783,274.380462 C124.69783,277.068311 120.49993,279.246459 115.32238,279.246459 C110.14483,279.246459 105.94798,277.067691 105.94798,274.380462 C105.94798,271.693233 110.14483,269.514465 115.32238,269.514465 C120.49993,269.514465 124.69783,271.693233 124.69783,274.380462 Z" id="Path" fill="url(#radialGradient-5)" fill-rule="nonzero" opacity="0.5"></path>
            <path d="M134.73943,233.914955 C134.73943,237.650827 126.06377,240.67826 115.3635,240.67826 C104.66323,240.67826 95.98974,237.649966 95.98974,233.914955 C95.98974,230.179944 104.66323,227.151649 115.3635,227.151649 C126.06377,227.151649 134.73943,230.179944 134.73943,233.914955 Z" id="Path" fill="url(#radialGradient-6)" fill-rule="nonzero" opacity="0.5"></path>
            <polyline id="Path" fill="url(#linearGradient-7)" fill-rule="nonzero" opacity="0.7" points="108.53433 166.469467 122.10533 166.469467 122.10533 232.897467 108.53433 232.897467 108.53433 166.469467"></polyline>
            <path d="M125.404518,170.084371 C125.404518,172.032597 120.880381,173.611378 115.300462,173.611378 C109.720542,173.611378 105.197537,172.032148 105.197537,170.084371 C105.197537,168.136594 109.720542,166.557364 115.300462,166.557364 C120.880381,166.557364 125.404518,168.136594 125.404518,170.084371 Z" id="Path" fill="url(#radialGradient-8)" fill-rule="nonzero"></path>
            <path d="M125.404518,169.194371 C125.404518,171.142597 120.880381,172.721378 115.300462,172.721378 C109.720542,172.721378 105.197537,171.142148 105.197537,169.194371 C105.197537,167.246594 109.720542,165.667364 115.300462,165.667364 C120.880381,165.667364 125.404518,167.246594 125.404518,169.194371 Z" id="Path" fill="url(#radialGradient-8)" fill-rule="nonzero"></path>
            <path d="M99.66633,328.446467 C100.35233,308.754467 101.00533,289.060467 101.62433,269.365467 C102.04433,256.026467 102.43933,242.557467 99.91933,229.451467 C98.02933,219.626467 94.53533,210.192467 90.95033,200.851467 C83.2120629,180.686434 74.9822739,160.713475 66.26833,140.950467 L67.18133,140.833467 L72.86933,153.356467 M130.65633,328.446467 C129.97033,308.754467 129.31733,289.060467 128.69833,269.365467 C128.27833,256.026467 127.88333,242.557467 130.40333,229.451467 C132.29333,219.626467 135.78733,210.192467 139.37133,200.851467 C147.109928,180.686425 155.34005,160.713466 164.05433,140.950467 L163.14133,140.833467 L157.45333,153.356467" id="Shape" stroke="#394D5A" stroke-linecap="round" stroke-linejoin="round"></path>
            <g transform="translate(85.990683, 122.839495)" id="Shape" stroke="#394D5A" stroke-width="0.5">
                <path d="M-1.42108547e-14,0 C0.80074644,2.305176 1.70631162,4.577184 2.71239969,6.8052444 C3.21673248,7.9246644 3.76660128,9.0598392 4.67560314,9.9081108 C5.1292449,10.3326612 5.670522,10.6776084 6.271941,10.8650076 C6.87336,11.0524068 7.53578007,11.0789412 8.1363399,10.8890544 C8.7463506,10.69668 9.2704443,10.2895428 9.63902823,9.7829016 C10.0076122,9.2762604 10.2215455,8.6750904 10.3066033,8.0623116 C10.4492255,7.0307868 10.2069396,5.9254632 9.51616692,5.1269436 C9.16992141,4.7289276 8.71713882,4.4130024 8.20851018,4.2405288 C7.69988154,4.0680552 7.13540685,4.0431792 6.61732734,4.1882892 C6.2203908,4.299402 5.85524355,4.5075312 5.5502382,4.7770212 C5.24523285,5.0465112 5.00122857,5.377362 4.81822536,5.7355764 C4.45135977,6.4503468 4.33451265,7.263792 4.33966767,8.0623116 C4.34825937,9.548238 4.76409765,11.0101176 5.35950246,12.379956 C5.95490727,13.7497944 6.72644193,15.041688 7.48508904,16.3335816 C10.3340968,21.1844016 13.0232989,26.1222876 15.838799,30.9921792 C18.8100868,36.1313871 21.921365,41.1940329 25.1693852,46.1748312 M58.1486256,0 C57.3478792,2.305176 56.442314,4.577184 55.4362259,6.8052444 C54.9318931,7.9246644 54.3820243,9.0598392 53.4730225,9.9081108 C53.0193807,10.3326612 52.4781036,10.6776084 51.8766846,10.8650076 C51.2752656,11.0524068 50.6128455,11.0789412 50.0122857,10.8890544 C49.402275,10.69668 48.8781813,10.2895428 48.5095974,9.7829016 C48.1410134,9.2762604 47.9270801,8.6750904 47.8420223,8.0623116 C47.6994001,7.0307868 47.941686,5.9254632 48.6324587,5.1269436 C48.9787042,4.7289276 49.4314868,4.4130024 49.9401154,4.2405288 C50.4487441,4.0680552 51.0132187,4.0431792 51.5312983,4.1882892 C51.9282348,4.299402 52.293382,4.5075312 52.5983874,4.7770212 C52.9033927,5.0465112 53.147397,5.377362 53.3304002,5.7347472 C53.6972658,6.4503468 53.8141129,7.263792 53.8089579,8.0623116 C53.8003662,9.548238 53.3845279,11.0101176 52.7891231,12.379956 C52.1937183,13.7497944 51.4221837,15.041688 50.6626774,16.3335816 C47.8136697,21.1844016 45.1253267,26.1222876 42.3098266,30.9921792 C39.3385256,36.1311076 36.2272475,41.1934768 32.9792404,46.174002"></path>
            </g>
            <polyline id="Path" stroke="#4E6472" stroke-width="3" points="66.27633 146.625467 93.77633 129.482467 135.56233 129.839467 164.49133 144.482467"></polyline>
            <g fill="url(#linearGradient-9)" fill-rule="nonzero" id="Path" opacity="0.367">
                <path d="M65.71633,305.635467 C59.79133,300.516467 56.69433,292.837467 54.97533,285.198467 C52.21333,272.925467 52.46633,260.105467 49.43933,247.895467 C46.67133,236.733467 41.25033,226.430467 35.62533,216.400467 C23.66933,195.085467 10.40533,174.060467 4.08133,150.453467 C-1.49867,129.623467 -1.36067,107.286467 4.51833,86.5394668 C9.04833,70.5484668 16.96033,55.5114668 27.66433,42.7974668 C39.11833,29.1944668 53.71433,18.3114668 69.85433,10.8454668 C85.72233,3.5054668 103.22133,-0.569533198 120.69333,0.0644668022 C142.25233,0.847466802 163.23333,8.8044668 181.01933,21.0144668 C202.32433,35.6414668 219.45833,56.6894668 227.92533,81.1064668 C234.12233,98.9774668 235.62133,118.408467 232.60933,137.082467 C229.84133,154.245467 223.35733,170.648467 215.13333,185.966467 C206.24433,202.523467 195.24733,218.058467 188.58533,235.630467 C184.44333,246.556467 182.05733,258.079467 180.47733,269.657467 C179.37633,277.727467 178.63233,285.955467 175.71833,293.560467 C174.02233,297.987467 171.52533,302.230467 167.81033,305.176467 C164.97833,307.422467 161.55033,308.823467 158.04033,309.681467 C154.53033,310.539467 150.91433,310.878467 147.31333,311.183467 C140.08533,311.794467 132.84733,312.279467 125.60833,312.738467 C114.63333,313.433467 103.63433,314.069467 92.64533,313.656467 C87.87133,313.476467 83.07833,313.095467 78.44733,311.923467 C73.81633,310.751467 69.32933,308.756467 65.71533,305.633467"></path>
            </g>
            <path d="M81.39633,33.0354668 C67.60533,35.0434668 56.85233,47.3044668 47.75633,57.8634668 C38.44633,68.6704668 31.21233,81.8454668 27.72533,95.6754668 C23.22033,113.543467 23.33433,132.972467 27.35033,150.956467 C31.94333,171.523467 45.85133,188.830467 54.63133,207.987467 C58.75933,216.993467 63.82933,225.685467 66.56933,235.206467 C69.57733,245.660467 67.96833,257.149467 71.35033,267.487467 C73.42033,273.811467 75.52033,280.921467 80.66333,285.143467 C86.92133,290.282467 96.01233,290.453467 103.94333,292.080467 C104.74533,292.245467 105.76333,292.896467 106.38133,292.362467 C108.69133,290.365467 106.53433,286.256467 106.66333,283.205467 C108.33833,243.350467 113.35833,203.595467 113.03833,163.705467 C112.70833,122.837467 129.16633,74.0074668 104.53833,41.3954668 C99.59533,34.8504668 89.51333,31.8554668 81.39733,33.0364668 L81.39633,33.0354668 Z" id="Path" fill="url(#linearGradient-10)" fill-rule="nonzero" opacity="0.7"></path>
            <g transform="translate(88.286330, 393.777467)" id="Path">
                <path d="M49.1421428,13.302129 C49.1421428,14.868173 40.7324236,16.137046 30.3597283,16.137046 C19.987033,16.137046 11.5773139,14.868173 11.5773139,13.302129 C11.5773139,11.736085 19.987033,10.467212 30.3597283,10.467212 C40.7324236,10.467212 49.1421428,11.736085 49.1421428,13.302129 Z" stroke="url(#linearGradient-11)" stroke-width="2.19556327"></path>
                <path d="M4.26325641e-14,-5.68434189e-14 L0.375,0.53 L6.406,6.156 C7.789,7.598 9.077,9.23 10.344,10.906 C10.894,11.635 11.436,12.132 11.624,12.625 C11.5483672,12.7238556 11.5050656,12.8436332 11.5,12.968 C11.5,13.142 11.614,13.303 11.812,13.468 C13.402,14.791 21.06,15.781 30.282,15.781 C40.654,15.781 49.062,14.534 49.062,12.968 C49.062,12.827 48.976,12.667 48.844,12.531 C48.848,12.384 48.871,11.891 49.469,10.968 C50.144,9.924 51.249,8.343 51.249,8.343 C51.167,7.928 54.589,4.892 55.062,4.281 L56.453,3.236 L4.26325641e-14,-5.68434189e-14 L4.26325641e-14,-5.68434189e-14 Z" fill="#212322" fill-rule="nonzero"></path>
                <path d="M0,0 L0.375,0.53 L6.406,6.156 C7.789,7.598 9.077,9.23 10.344,10.906 C10.894,11.635 11.436,12.132 11.624,12.625 C11.5483672,12.7238556 11.5050656,12.8436332 11.5,12.968 C11.5,13.142 11.614,13.303 11.812,13.468 C13.402,14.791 21.06,15.781 30.282,15.781 C40.654,15.781 49.062,14.534 49.062,12.968 C49.062,12.827 48.976,12.667 48.844,12.531 C48.848,12.384 48.871,11.891 49.469,10.968 C50.144,9.924 51.249,8.343 51.249,8.343 C51.167,7.928 54.589,4.892 55.062,4.281 L56.453,3.236 L0,0 L0,0 Z" fill="url(#linearGradient-12)" fill-rule="nonzero"></path>
            </g>
            <g transform="translate(62.901578, 305.815467)" fill-rule="nonzero" id="Path">
                <path d="M79.4417516,91.847 C87.5997516,85.312 95.7577516,78.777 102.074752,70.632 C103.174752,68.927 101.884752,67.403 101.829752,67.388 C100.340752,66.706 99.6297516,65.905 100.377752,64.762 C100.647752,64.347 101.088752,63.995 101.627752,63.762 C101.684666,63.7268678 101.737058,63.6848877 101.783752,63.637 L103.377752,62.418 C103.434752,62.392 103.477752,62.353 103.533752,62.324 C104.557752,61.807 105.317752,61.007 105.658752,60.043 C106.026505,58.9750142 105.876446,57.7967223 105.252752,56.855 C104.822752,56.198 104.182752,55.712 103.439752,55.355 L103.470752,55.325 L103.314752,55.23 L101.720752,54.074 C101.671064,54.0479331 101.618777,54.0271526 101.564752,54.012 C100.075752,53.33 99.6297516,51.999 100.377752,50.856 C100.647752,50.441 101.088752,50.089 101.627752,49.856 C101.684666,49.8208678 101.737058,49.7788877 101.783752,49.731 L103.377752,48.481 C103.434752,48.455 103.477752,48.416 103.533752,48.387 C104.557752,47.87 105.317752,47.07 105.658752,46.106 C106.026505,45.0380142 105.876446,43.8597223 105.252752,42.918 C104.822752,42.261 104.182752,41.774 103.439752,41.418 L103.470752,41.387 L103.314752,41.293 L101.720752,40.137 C101.671064,40.1109331 101.618777,40.0901526 101.564752,40.075 C100.075752,39.393 99.6297516,38.061 100.376752,36.919 C100.648752,36.504 101.088752,36.152 101.626752,35.919 C101.684073,35.8836243 101.736806,35.8413039 101.783752,35.793 L103.376752,34.575 C103.434752,34.549 103.476752,34.51 103.533752,34.481 C104.557752,33.964 105.317752,33.164 105.658752,32.2 C106.026212,31.131861 105.875783,29.953559 105.251752,29.012 C104.822752,28.355 104.181752,27.868 103.439752,27.512 L103.470752,27.481 L103.314752,27.387 L101.720752,26.231 C101.671064,26.2049331 101.618777,26.1841526 101.564752,26.169 C100.075752,25.487 99.6297516,24.155 100.377752,23.012 C100.624752,22.634 100.943752,22.295 101.220752,22.169 C101.383752,22.095 101.355752,22.089 101.377752,22.075 L101.439752,22.044 C101.472752,22.018 101.489752,21.986 101.533752,21.95 C101.621752,21.879 101.765752,21.788 101.908752,21.668 C102.194752,21.43 102.558752,21.106 103.001752,20.731 C103.889752,19.982 104.600752,19.562 105.510752,18.793 C105.535752,13.54 105.705752,6.855 105.961752,1.303 C60.5447516,13.138 19.0717516,6.257 0.857751635,0 C-0.898248365,2.518 0.622751635,6.23 0.400751635,9.124 C1.04775164,9.984 1.72075164,10.823 2.25275164,11.731 C3.16275164,12.501 4.27075164,13.451 5.15875164,14.2 C5.60275164,14.574 5.96575164,14.899 6.25275164,15.137 C6.39575164,15.257 6.53975164,15.347 6.62775164,15.418 C6.67075164,15.454 6.68775164,15.486 6.72075164,15.512 L6.78375164,15.543 C6.80375164,15.558 6.77775164,15.563 6.93975164,15.637 C7.21675164,15.763 7.53675164,16.103 7.78375164,16.481 C8.53075164,17.624 8.08475164,18.956 6.59575164,19.637 C6.54172595,19.6521526 6.48943961,19.6729331 6.43975164,19.699 L4.84575164,20.856 L4.68975164,20.95 L4.72075164,20.98 C3.97875164,21.337 3.33775164,21.824 2.90875164,22.48 C2.28472063,23.421559 2.13429123,24.599861 2.50175164,25.668 C2.84275164,26.633 3.60175164,27.432 4.62675164,27.949 C4.68375164,27.977 4.72575164,28.016 4.78375164,28.043 L6.37675164,29.263 C6.42375164,29.31 6.47675164,29.353 6.53375164,29.387 C7.07175164,29.621 7.51275164,29.972 7.78375164,30.387 C8.53075164,31.53 8.08475164,32.862 6.59575164,33.543 L6.43975164,33.605 L4.84575164,34.762 L4.68975164,34.856 L4.72075164,34.886 C3.97875164,35.243 3.33775164,35.73 2.90875164,36.386 C2.28472063,37.327559 2.13429123,38.505861 2.50175164,39.574 C2.84275164,40.538 3.60175164,41.338 4.62675164,41.855 C4.68375164,41.883 4.72575164,41.922 4.78375164,41.949 L6.37675164,43.199 C6.42375164,43.247 6.47675164,43.289 6.53375164,43.324 C7.07175164,43.558 7.51175164,43.91 7.78375164,44.324 C8.53075164,45.467 8.08375164,46.799 6.59575164,47.481 L6.43975164,47.543 L4.84575164,48.699 L4.68975164,48.793 L4.72075164,48.823 C3.97875164,49.18 3.33775164,49.667 2.90875164,50.323 C2.28472063,51.264559 2.13429123,52.442861 2.50175164,53.511 C2.84275164,54.476 3.60175164,55.276 4.62675164,55.793 C4.68275164,55.821 4.72575164,55.86 4.78375164,55.887 L6.37675164,57.105 C6.42375164,57.153 6.47675164,57.195 6.53375164,57.23 C7.07175164,57.464 7.51175164,57.816 7.78375164,58.23 C8.53075164,59.373 8.08375164,60.705 6.59575164,61.387 C6.54172595,61.4021526 6.48943961,61.4229331 6.43975164,61.449 L4.84575164,62.605 L4.68975164,62.699 L4.72075164,62.729 C3.97875164,63.086 3.33775164,63.573 2.90875164,64.229 C2.28475164,65.184 2.14575164,66.332 2.47075164,67.324 C2.78575164,68.282 3.51375164,69.101 4.50175164,69.636 L4.59575164,69.698 C4.60175164,69.698 4.58875164,69.724 4.59575164,69.729 C4.67775164,69.793 4.79175164,69.861 4.93975164,69.979 C5.23475164,70.215 5.64975164,70.566 6.09575164,70.948 C6.95475164,71.683 7.93775164,72.605 8.56475164,73.354 C8.56075164,73.42 8.55475164,73.511 8.53375164,73.667 C8.48375164,74.04 8.38475164,74.63 8.65875164,75.26 C8.83975164,75.68 9.09275164,75.859 9.40875164,76.167 C9.72475164,76.475 10.1137516,76.822 10.5647516,77.197 C11.4647516,77.95 12.5947516,78.827 13.6897516,79.697 C14.7847516,80.567 15.8467516,81.444 16.5957516,82.135 L29.0357516,92.163 C45.8377516,93.363 62.6397516,93.471 79.4417516,91.846 L79.4417516,91.847 Z" fill="url(#linearGradient-13)"></path>
                <path d="M80.7047516,91.846 C88.8627516,85.312 97.0207516,78.777 103.337752,70.632 C104.437752,68.927 103.147752,67.403 103.092752,67.388 C54.5327516,68.086 -8.53724836,31.961 3.73375164,67.324 C4.04875164,68.282 4.77775164,69.101 5.76475164,69.636 L5.85875164,69.698 C5.86475164,69.698 5.85175164,69.724 5.85875164,69.729 C5.94175164,69.793 6.05475164,69.861 6.20275164,69.979 C6.49775164,70.215 6.91275164,70.566 7.35875164,70.948 C8.21775164,71.683 9.20075164,72.605 9.82775164,73.354 C9.82375164,73.42 9.81775164,73.511 9.79675164,73.667 C9.74675164,74.04 9.64775164,74.63 9.92175164,75.26 C10.1027516,75.68 10.3557516,75.859 10.6717516,76.167 C10.9877516,76.475 11.3767516,76.822 11.8277516,77.197 C12.7287516,77.95 13.8577516,78.827 14.9527516,79.697 C16.0477516,80.567 17.1097516,81.444 17.8587516,82.135 L30.2987516,92.163 C47.1007516,93.363 63.9027516,93.471 80.7047516,91.846 Z" fill="url(#linearGradient-14)"></path>
                <path d="M79.4877516,91.758 C87.6447516,85.223 95.8027516,78.688 102.119752,70.544 C103.219752,68.838 101.929752,67.314 101.875752,67.299 L2.51575164,67.235 C2.83075164,68.195 3.55975164,69.012 4.54775164,69.548 L4.64075164,69.61 C4.64675164,69.61 4.63375164,69.636 4.64075164,69.64 C4.72375164,69.705 4.83775164,69.773 4.98475164,69.89 C5.27975164,70.126 5.69475164,70.478 6.14075164,70.86 C7.00075164,71.594 7.98275164,72.516 8.61075164,73.266 C8.60575164,73.332 8.59975164,73.422 8.57875164,73.578 C8.52875164,73.952 8.43075164,74.541 8.70375164,75.172 C8.88575164,75.592 9.13875164,75.771 9.45375164,76.078 C9.76875164,76.385 10.1597516,76.733 10.6097516,77.109 C11.5107516,77.862 12.6397516,78.739 13.7347516,79.609 C14.8297516,80.479 15.8927516,81.356 16.6407516,82.047 L29.0807516,92.075 C45.8837516,93.275 62.6857516,93.383 79.4877516,91.757 L79.4877516,91.758 Z" fill="url(#linearGradient-15)"></path>
            </g>
            <path d="M168.699589,304.742165 C168.699589,309.135684 145.034065,312.698771 115.840224,312.698771 C86.6463824,312.698771 62.9872201,309.135684 62.9872201,304.742165 C62.9872201,304.629668 62.9999435,304.517171 63.031752,304.404674" id="Path" stroke="url(#linearGradient-16)" stroke-width="2.61775664"></path>
        </g>
    </g>
</svg>